<svg xmlns="http://www.w3.org/2000/svg" viewBox="0 0 550.01 400"><title>blackfynn-logo-full</title><path d="M200,100A50,50,0,0,0,200,0H50a50,50,0,0,0,0,100Zm300,0A50,50,0,0,0,500,0H350a50,50,0,0,0,0,100ZM200,400a50,50,0,0,0,0-100H50a50,50,0,0,0,0,100Z" fill="#071540"/><circle cx="350" cy="350" r="50" fill="#071540"/><path d="M50,150a50,50,0,1,0,50,50h0A50,50,0,0,0,50,150Zm0,70a20,20,0,1,1,20-20A20,20,0,0,1,50,220Zm450,80a50,50,0,1,0,50,50h0A50,50,0,0,0,500,300Zm0,70a20,20,0,1,1,20-20A20,20,0,0,1,500,370Z" fill="#2760ff"/><path d="M500,150a50,50,0,0,0-45.83,30H395.83a50,50,0,0,0-91.66,0H245.83a50,50,0,1,0,0,40h58.34a50,50,0,0,0,91.66,0h58.34A50,50,0,1,0,500,150Z" fill="#071540"/></svg>