<?xml version="1.0" encoding="utf-8"?>
<!-- Generator: Adobe Illustrator 21.1.0, SVG Export Plug-In . SVG Version: 6.00 Build 0)  -->
<svg version="1.1" id="Layer_1" xmlns="http://www.w3.org/2000/svg" xmlns:xlink="http://www.w3.org/1999/xlink" x="0px" y="0px"
	 viewBox="0 0 24 24" style="enable-background:new 0 0 24 24;" xml:space="preserve">
<title>icon-rotate-right</title>
<path d="M20.7,10.9c-0.4-0.4-1-0.4-1.4,0l-0.4,0.4c0,0,0-0.1,0-0.1c-0.2-4.2-3.6-7.7-7.9-7.7C6.5,3.6,3,7.2,3,11.6c0,0,0,0,0,0
	c0,0,0,0,0,0c0,0,0,0,0,0c0,0,0,0,0,0c0,1.1,0.2,2.1,0.6,3.1c0.4,0.9,0.9,1.8,1.6,2.5c0.2,0.2,0.5,0.3,0.7,0.3
	c0.2,0,0.5-0.1,0.7-0.3c0.4-0.4,0.4-1,0-1.4c-0.5-0.5-0.9-1.2-1.2-1.9C5.2,13.2,5,12.4,5,11.6c0,0,0,0,0,0c0,0,0,0,0,0
	c0-3.3,2.6-6,5.9-6.1c3.2,0,5.8,2.6,5.9,5.8l-0.4-0.4c-0.4-0.4-1-0.4-1.4,0c-0.4,0.4-0.4,1,0,1.4l2.8,2.7l2.8-2.7
	C21.1,11.9,21.1,11.3,20.7,10.9z"/>
</svg>
