<svg xmlns="http://www.w3.org/2000/svg" viewBox="0 0 24 24">
  <title>mri</title>
  <path d="M21,10.3c0.4-2.8-0.8-6.1-4.1-7.5c-2.6-1.2-7.2-1.2-9.7,1C5.2,5.8,4.7,8.5,4.7,8.5s-0.2,1-0.2,1.4c0,0.3,0.4,0.5,0.3,0.6
      		c0,0.2-0.4,0.6-0.8,1.2c-0.3,0.5-1.1,1.7-1.1,2c0,0.3,0.2,0.4,0.6,0.6c0.4,0.1,0.7,0.2,0.7,0.4C4.3,14.7,4,15.1,4,15.4
      		c0,0.3,0.1,0.3,0.3,0.4c0.2,0.1,0.6,0.1,0.6,0.1S4.1,16,4.2,16.4c0.1,0.3,0.6,0.4,0.6,0.7c0,0.1-0.4,0.8-0.4,1.5
      		c0.1,0.9,0.9,1.3,2.2,1.1c1.3-0.2,1.8-0.4,2,0.3c0.1,0.4,0.1,1.2,0.3,2c0,0,0,0.1,0,0.1h9.6c-0.4-0.8-1-2-1-3.5
      		c0-1.1,0.1-2.6,0.9-3.4C19.5,14,20.7,12.5,21,10.3z M17,12.5c0,0-0.1,1.4-1.1,1.6c-0.9,0.2-1.4-0.7-1.4-0.7l-0.3,1.3h-0.6
      		c0,0-0.6-2-0.9-2.4c-0.4-0.3-1-0.4-1-0.4s-0.8-0.1-1.3-0.6c-0.5-0.5,0-1.1,0-1.1s-0.6,0-2-0.2C7,9.7,7.4,8.8,7.4,8.8
      		S7.1,8.9,6.8,8.5c-0.2-0.3-0.3-0.9,0-1.6C7.2,6.3,7.7,6,7.7,6S7.5,5.8,8,5.4c0.2-0.2,0.7-0.2,0.7-0.2s0.1-0.4,0.7-0.7
      		c0.7-0.3,1.2-0.1,1.2-0.1s0.2-0.4,0.7-0.6c0.6-0.2,1.1,0.1,1.1,0.1s0.4-0.3,1.1-0.3c0.7,0,0.9,0.4,0.9,0.4s0.4-0.2,0.9,0
      		c0.5,0.2,0.6,0.6,0.6,0.6s0.3-0.2,0.8-0.1c0.5,0.2,0.7,0.7,0.7,0.7s0.3,0,0.7,0.2c0.2,0.2,0.2,0.6,0.2,0.6s0.4,0.1,0.6,0.6
      		c0.2,0.4-0.1,0.8-0.1,0.8s0.7,0.5,0.8,1.8c0.1,1.6-0.9,1.9-0.9,1.9s0.2,0.5-0.2,1C18,12.9,17,12.5,17,12.5z"/>
</svg>
