<?xml version="1.0" encoding="utf-8"?>
<!-- Generator: Adobe Illustrator 21.1.0, SVG Export Plug-In . SVG Version: 6.00 Build 0)  -->
<svg version="1.1" id="Layer_1" xmlns="http://www.w3.org/2000/svg" xmlns:xlink="http://www.w3.org/1999/xlink" x="0px" y="0px"
	 viewBox="0 0 128 128" style="enable-background:new 0 0 16 20;" xml:space="preserve">
<title>icon-neural</title>
  <g id="icon-neural">
    <path fill="#071540" d="M110,16a8,8,0,0,0-16,0c0,.25,0,.49,0,.74L62.31,28.14,54.42,18a6,6,0,1,0-8.88,0l-13,16.34A10,10,0,0,1,40,44c0,.05,0,.1,0,.15l23.33-9.77L73.87,49.16l-7.47,9a6,6,0,0,0-5.63,1.57q-5.34-3.18-10.64-6.41T39.62,46.71A10,10,0,0,1,37,51.09q5.47,2.94,10.88,6T59,63.44c0,.19,0,.37,0,.56a6,6,0,0,0,4.5,5.8V98.2A6,6,0,0,0,59,103.63L27.53,107A10,10,0,0,0,22,100.83l10-47a10,10,0,0,1-7.32-1.34L17.49,100A10,10,0,1,0,28,110.53l31.32-4.67A6,6,0,0,0,71,104s0-.08,0-.12l28.58-9.57a8.29,8.29,0,0,1-1.89-4.89L70.46,101.53a6,6,0,0,0-4-3.34V69.8A6,6,0,0,0,68.37,69q8.79,5.28,17.5,10.69,6,3.75,12,7.63a8.32,8.32,0,0,1,11.54-5.89l-4.76-57.84A8,8,0,0,0,110,16ZM38.62,36.65l9.4-17a5.93,5.93,0,0,0,4.61-.26l6.95,9.73Zm27.61-3.5L95.64,20.83a8,8,0,0,0,.89,1L76.36,46.15Zm22,42.6q-8.76-5-17.42-10.1a6,6,0,0,0-1.15-5.5l6.2-8.29L96,80.13Q92.07,78,88.18,75.76ZM78.27,48.59l19.36-25.9a8,8,0,0,0,2.59,1.1l1.5,54.84Z"/>
    <path fill="#315aff" d="M106,103a14,14,0,1,1,14-14A14,14,0,0,1,106,103Zm0-20a6,6,0,1,0,6,6A6,6,0,0,0,106,83Z"/>
    <path fill="#315aff" d="M30,60A16,16,0,1,1,46,44,16,16,0,0,1,30,60Zm0-24a8,8,0,1,0,8,8A8,8,0,0,0,30,36Z"/>
  </g>
</svg>
