<svg xmlns="http://www.w3.org/2000/svg" viewBox="0 0 24 24"><defs><style>.cls-1{fill:none;}</style></defs><title>procedure</title><g id="procedure"><g id="_procedure_" data-name="&lt;procedure&gt;"><circle class="cls-1" cx="18.49" cy="5.51" r="1.5"/><path class="cls-1" d="M5.48,4A1.31,1.31,0,0,0,5,4.1,1.51,1.51,0,1,0,5.48,4Z"/><circle class="cls-1" cx="5.71" cy="18.51" r="1.5"/><path d="M16.93,15.34A1,1,0,0,0,17,16.75l.84.76H9.05a3.19,3.19,0,0,0-.35-.8l8.14-8.13A3.49,3.49,0,1,0,18.49,2a3.48,3.48,0,0,0-3.35,2.53.76.76,0,0,0-.16,0H9l-.15,0c0-.08,0-.15-.05-.23h0A3.51,3.51,0,1,0,5.49,9,3.6,3.6,0,0,0,6.68,8.8,3.54,3.54,0,0,0,8.84,6.48c.05,0,.09,0,.14,0h6a.75.75,0,0,0,.16,0,3,3,0,0,0,.28.69l-8.2,8.2A3.46,3.46,0,0,0,5.71,15a3.5,3.5,0,1,0,3.34,4.5h8.79l-.84.75a1,1,0,1,0,1.34,1.49l3.59-3.24-3.59-3.25A1,1,0,0,0,16.93,15.34ZM6,6.92A1.5,1.5,0,1,1,5,4.1,1.31,1.31,0,0,1,5.48,4,1.5,1.5,0,0,1,6,6.92ZM18.49,4A1.5,1.5,0,1,1,17,5.51,1.5,1.5,0,0,1,18.49,4ZM5.71,20a1.5,1.5,0,1,1,1.5-1.5A1.51,1.51,0,0,1,5.71,20Z"/></g></g></svg>