<?xml version="1.0" encoding="utf-8"?>
<!-- Generator: Adobe Illustrator 21.1.0, SVG Export Plug-In . SVG Version: 6.00 Build 0)  -->
<svg version="1.1" id="Layer_1" xmlns="http://www.w3.org/2000/svg" xmlns:xlink="http://www.w3.org/1999/xlink" x="0px" y="0px"
	 viewBox="0 0 16 20" style="enable-background:new 0 0 16 20;" xml:space="preserve">
<title>icon-person</title>
<g>
	<path d="M8,10c2.8,0,5-2.2,5-5s-2.2-5-5-5S3,2.2,3,5S5.2,10,8,10z M8,2c1.7,0,3,1.3,3,3S9.7,8,8,8S5,6.7,5,5S6.3,2,8,2z"/>
	<path d="M15.9,18.9c-0.5-3.5-3.3-6.3-6.8-6.8c-2.1-0.3-4.2,0.2-5.9,1.5s-2.8,3.1-3.1,5.3c-0.1,0.5,0.3,1,0.8,1.1H1
		c0.5,0,0.9-0.4,1-0.9c0.5-3.3,3.5-5.5,6.8-5.1c2.2,0.3,4.1,1.9,4.8,3.9H5c-0.6,0-1,0.4-1,1s0.4,1,1,1h11.1L15.9,18.9z"/>
</g>
</svg>
