<svg xmlns="http://www.w3.org/2000/svg" viewBox="0 0 24 24"><title>nav-guide</title><g id="guide"><path d="M14,7h6a1,1,0,0,0,0-2H14a1,1,0,0,0,0,2Z"/><path d="M20,9H14a1,1,0,0,0,0,2h6a1,1,0,0,0,0-2Z"/><path d="M20,13H11a1,1,0,0,0,0,2h9a1,1,0,0,0,0-2Z"/><path d="M20,17H11a1,1,0,0,0,0,2h9a1,1,0,0,0,0-2Z"/><circle cx="6" cy="18" r="1"/><path d="M6.5,4.05A4.44,4.44,0,0,0,2.05,8.47a1,1,0,0,0,2,0A2.43,2.43,0,0,1,6.5,6.05,2.35,2.35,0,0,1,9,8.47C9,9.58,7.56,10.41,6.55,11S5,12,5,12.74v1.71a1,1,0,0,0,2,0V13.09c.16-.11.39-.24.58-.36C8.84,12,11,10.72,11,8.47A4.39,4.39,0,0,0,6.5,4.05Z"/></g></svg>