<?xml version="1.0" encoding="utf-8"?>
<!-- Generator: Adobe Illustrator 21.0.0, SVG Export Plug-In . SVG Version: 6.00 Build 0)  -->
<svg version="1.1" id="Layer_1" xmlns="http://www.w3.org/2000/svg" xmlns:xlink="http://www.w3.org/1999/xlink" x="0px" y="0px"
	 viewBox="0 0 20 20.2" style="enable-background:new 0 0 20 20.2;" xml:space="preserve">
<title>collaborators</title>
<g id="sharing">
	<path d="M10,0L0,2.1V3c0,1,0.6,9.9,3.3,12.7c1.9,1.7,4,3.1,6.2,4.3l0.5,0.2l0.5-0.2c2.2-1.2,4.3-2.6,6.2-4.3C19.4,12.9,20,4,20,3
		V2.2L10,0z M15.3,14.2c-1.6,1.4-3.4,2.7-5.3,3.7c-1.9-1-3.7-2.2-5.3-3.7C3,12.5,2.3,6.7,2.1,3.7L10,2l8,1.7
		C17.7,7.3,16.8,12.7,15.3,14.2z"/>
	<path d="M8,6.9c0,0.8,0.4,1.4,1.1,1.8L7,12.9h6l-2.1-4.2c0.7-0.3,1.1-1,1.1-1.8c0-1.1-0.9-2-2-2S8,5.8,8,6.9z"/>
</g>
</svg>
