<?xml version="1.0" encoding="utf-8"?>
<!-- Generator: Adobe Illustrator 21.1.0, SVG Export Plug-In . SVG Version: 6.00 Build 0)  -->
<svg version="1.1" id="Layer_1" xmlns="http://www.w3.org/2000/svg" xmlns:xlink="http://www.w3.org/1999/xlink" x="0px" y="0px"
	 viewBox="0 0 24 24" style="enable-background:new 0 0 24 24;" xml:space="preserve">
<title>icon-compass</title>
<g>
	<path d="M12,2C6.5,2,2,6.5,2,12s4.5,10,10,10s10-4.5,10-10S17.5,2,12,2z M13,19.9V19c0-0.6-0.4-1-1-1c-0.6,0-1,0.4-1,1v0.9
		c-3.6-0.5-6.5-3.3-6.9-6.9H5c0.6,0,1-0.4,1-1c0-0.6-0.4-1-1-1H4.1C4.5,7.4,7.4,4.5,11,4.1V5c0,0.6,0.4,1,1,1c0.6,0,1-0.4,1-1V4.1
		c3.6,0.5,6.5,3.3,6.9,6.9H19c-0.6,0-1,0.4-1,1c0,0.6,0.4,1,1,1h0.9C19.5,16.6,16.6,19.5,13,19.9z"/>
	<polygon points="9,16 13.6,13.2 15,8 10.4,10.8 	"/>
</g>
</svg>
