<?xml version="1.0" encoding="utf-8"?>
<!-- Generator: Adobe Illustrator 21.1.0, SVG Export Plug-In . SVG Version: 6.00 Build 0)  -->
<svg version="1.1" id="Layer_1" xmlns="http://www.w3.org/2000/svg" xmlns:xlink="http://www.w3.org/1999/xlink" x="0px" y="0px"
	 viewBox="0 0 20 20" style="enable-background:new 0 0 20 20;" xml:space="preserve">
<title>icon-settings</title>
<g>
	<path d="M18,10.5V9.6l1.9-1.2l-0.2-0.7c-0.5-1.8-1.4-3.5-2.8-4.8l-0.5-0.5l-2,1l-0.8-0.5l-0.1-2.2l-0.7-0.2C11,0,9.1,0,7.2,0.5
		L6.5,0.6L6.4,2.8L5.6,3.3l-2-1L3.1,2.8c-1.4,1.3-2.3,3-2.8,4.8L0.1,8.3L2,9.5v0.9l-1.9,1.2l0.2,0.7c0.4,1.8,1.4,3.5,2.8,4.8
		l0.5,0.5l2-1l0.8,0.5l0.1,2.2l0.7,0.2c0.9,0.3,1.8,0.4,2.8,0.4c0.9,0,1.9-0.1,2.8-0.4l0.7-0.2l0.1-2.2l0.8-0.5l2,1l0.5-0.5
		c1.4-1.3,2.3-3,2.8-4.8l0.2-0.7L18,10.5z M16,15.3l-1.7-0.8L11.7,16l-0.1,1.9c-1,0.2-2.1,0.2-3.1,0L8.3,16l-2.7-1.5L4,15.3
		c-0.7-0.8-1.2-1.7-1.6-2.7l1.6-1V8.5l-1.6-1c0.3-1,0.9-1.9,1.5-2.7l1.7,0.8L8.3,4l0.1-1.9c1-0.2,2.1-0.2,3.1,0L11.7,4l2.7,1.5
		L16,4.7c0.7,0.8,1.2,1.7,1.6,2.7l-1.6,1v3.1l1.6,1C17.2,13.6,16.7,14.5,16,15.3z"/>
	<path d="M12.6,8.2c-0.5,0.2-0.8,0.7-0.7,1.2s0.1,1.1-0.2,1.5c-0.3,0.5-0.7,0.8-1.2,1C10,12.1,9.5,12,9,11.8c-0.5-0.3-0.8-0.7-1-1.2
		C7.9,10,8,9.5,8.2,9c0.3-0.5,0.7-0.8,1.2-1s0.8-0.7,0.7-1.2S9.4,6,8.9,6.2c-1,0.3-1.9,1-2.4,1.9s-0.6,2-0.3,3c0.3,1,1,1.9,1.9,2.4
		C8.7,13.8,9.4,14,10,14c0.4,0,0.8-0.1,1.1-0.2c1-0.3,1.9-1,2.4-1.9c0.5-0.9,0.6-2,0.3-3C13.7,8.4,13.1,8,12.6,8.2z"/>
</g>
</svg>
