<?xml version="1.0" encoding="utf-8"?>
<!-- Generator: Adobe Illustrator 21.1.0, SVG Export Plug-In . SVG Version: 6.00 Build 0)  -->
<svg version="1.1" id="Layer_1" xmlns="http://www.w3.org/2000/svg" xmlns:xlink="http://www.w3.org/1999/xlink" x="0px" y="0px"
	 viewBox="0 0 24 24" style="enable-background:new 0 0 24 24;" xml:space="preserve">
<title>icon-rotate-left</title>
<path d="M21,11.6C21,11.6,21,11.6,21,11.6C21,11.6,21,11.6,21,11.6c0-4.4-3.5-8-7.9-8.1c-4.3,0-7.7,3.5-7.9,7.7c0,0,0,0.1,0,0.1
	l-0.4-0.4c-0.4-0.4-1-0.4-1.4,0c-0.4,0.4-0.4,1,0,1.4L6.1,15L9,12.3c0.4-0.4,0.4-1,0-1.4c-0.4-0.4-1-0.4-1.4,0l-0.4,0.4
	c0.1-3.2,2.7-5.7,5.9-5.8c3.3,0,6,2.8,5.9,6.1c0,0,0,0,0,0c0,0,0,0,0,0c0,0.8-0.2,1.6-0.5,2.3c-0.3,0.7-0.7,1.3-1.2,1.9
	c-0.4,0.4-0.4,1,0,1.4c0.2,0.2,0.4,0.3,0.7,0.3c0.3,0,0.5-0.1,0.7-0.3c0.7-0.7,1.2-1.6,1.6-2.5C20.8,13.7,21,12.7,21,11.6
	C21,11.6,21,11.6,21,11.6C21,11.6,21,11.6,21,11.6z"/>
</svg>
