<svg xmlns="http://www.w3.org/2000/svg" viewBox="0 0 24 24"><title>iconunlink</title><g id="unlink"><path d="M17,7.88H14a1,1,0,0,0,0,2h3c1.63,0,3,1,3,2.17s-1.37,2.17-3,2.17H14a1,1,0,1,0,0,2h3c2.76,0,5-1.87,5-4.17S19.76,7.88,17,7.88Z"/><path d="M10,14.22H7c-1.63,0-3-1-3-2.17S5.37,9.88,7,9.88h3a1,1,0,0,0,0-2H7c-2.76,0-5,1.87-5,4.17s2.24,4.17,5,4.17h3a1,1,0,0,0,0-2Z"/><path d="M7,18.59,5.59,20a1,1,0,0,0,0,1.41,1,1,0,0,0,.7.3,1,1,0,0,0,.71-.3L8.41,20A1,1,0,0,0,7,18.59Z"/><path d="M17,18.59A1,1,0,0,0,15.59,20L17,21.41a1,1,0,0,0,.71.3,1,1,0,0,0,.7-.3,1,1,0,0,0,0-1.41Z"/><path d="M12,18a1,1,0,0,0-1,1v2a1,1,0,0,0,2,0V19A1,1,0,0,0,12,18Z"/><path d="M7,5.41a1,1,0,0,0,.71.3,1,1,0,0,0,.7-.3A1,1,0,0,0,8.41,4L7,2.59A1,1,0,0,0,5.59,4Z"/><path d="M16.29,5.71a1,1,0,0,0,.71-.3L18.41,4A1,1,0,0,0,17,2.59L15.59,4a1,1,0,0,0,0,1.41A1,1,0,0,0,16.29,5.71Z"/><path d="M12,6a1,1,0,0,0,1-1V3a1,1,0,0,0-2,0V5A1,1,0,0,0,12,6Z"/></g></svg>