<?xml version="1.0" encoding="utf-8"?>
<!-- Generator: Adobe Illustrator 21.1.0, SVG Export Plug-In . SVG Version: 6.00 Build 0)  -->
<svg version="1.1" id="Layer_1" xmlns="http://www.w3.org/2000/svg" xmlns:xlink="http://www.w3.org/1999/xlink" x="0px" y="0px"
	 viewBox="0 0 24 24" style="enable-background:new 0 0 24 24;" xml:space="preserve">
<style type="text/css">
	.st0{fill:#FFFFFF;}
</style>
<title>icon-global</title>
<g id="Global">
	<circle class="st0" cx="12" cy="12" r="7"/>
	<path d="M15.9,8.2c-0.6-0.4-1.3-0.7-2.1-0.8c0,0,0-0.1-0.1-0.1c0.1,0,0.2,0.1,0.3,0.1h0.6c0.2,0.2,0.5,0.3,0.8,0.4
		c0.1,0,0.2,0,0.3,0L15.9,8.2z"/>
	<path d="M12,4c-4.4,0-8,3.6-8,8s3.6,8,8,8s8-3.6,8-8S16.4,4,12,4z M6,12C6,12,6,12,6,12l1.9,1.5l0.6,1.4c0.2,0.4,0.5,0.6,0.9,0.6
		c0.1,0,0.1,0,0.2,0c0.4-0.1,0.8-0.4,0.8-0.9l0.3-3.2l0.8-0.7c0.2-0.2,0.3-0.5,0.3-0.7V8.4c0-0.4-0.2-0.7-0.5-0.9
		c-0.3-0.2-0.7-0.2-1,0c-0.3,0.2-0.6,0.3-0.9,0.4L9.3,7.2C9.2,7,9.1,6.9,9,6.8C9.9,6.3,10.9,6,12,6c0.2,0,0.3,0,0.5,0
		c0,0.1,0,2.4,1.2,2.4c0.8,0.1,1.6,0.5,2.2,1c0.1,0.1,0.2,0.2,0.3,0.4l0.8,1.5c0.2,0.4,0.6,0.6,1,0.7c0,0,0,0,0,0
		c0,0.3,0,0.6-0.1,0.9c0,0,0-0.1-0.1-0.1l-0.5-0.4c-0.2-0.2-0.5-0.2-0.7-0.2l-2.6,0.3c-0.2,0-0.5,0.2-0.6,0.3l-0.8,0.9
		c-0.2,0.3-0.3,0.7-0.2,1l1.2,2.9C13.1,17.9,12.6,18,12,18C8.7,18,6,15.3,6,12z"/>
</g>
</svg>
