<?xml version="1.0" encoding="utf-8"?>
<!-- Generator: Adobe Illustrator 21.1.0, SVG Export Plug-In . SVG Version: 6.00 Build 0)  -->
<svg version="1.1" id="Layer_1" xmlns="http://www.w3.org/2000/svg" xmlns:xlink="http://www.w3.org/1999/xlink" x="0px" y="0px"
	 viewBox="0 0 20 20" style="enable-background:new 0 0 20 20;" xml:space="preserve">
<title>icon-dataset-settings</title>
<g>
	<path d="M5,13H2V2h11v3c0,0.6,0.4,1,1,1s1-0.4,1-1V0H0v15h5c0.6,0,1-0.4,1-1S5.5,13,5,13z"/>
	<path d="M18.3,14.7V13l1.5-0.6c-0.3-1.1-0.9-2.2-1.8-2.9l-1.2,1.1l-1.5-0.8l0.3-1.6c-1.1-0.3-2.3-0.3-3.5,0.1l0.4,1.6L11,10.8
		l-1.3-1c-0.8,0.8-1.4,1.9-1.6,3l1.6,0.5L9.8,15l-1.5,0.6c0.3,1.1,0.9,2.2,1.8,2.9l1.2-1.1l1.5,0.8l-0.3,1.6
		c1.1,0.3,2.3,0.3,3.5-0.1l-0.4-1.6l1.5-0.9l1.3,1c0.8-0.8,1.4-1.9,1.6-3L18.3,14.7z M14.9,15.4L14.9,15.4L14.9,15.4
		c-0.8,0.5-1.9,0.3-2.4-0.6s-0.3-1.9,0.6-2.4c0.8-0.5,1.9-0.3,2.4,0.6l0,0C16,13.9,15.7,14.9,14.9,15.4z"/>
</g>
</svg>
