<svg id="add-template" xmlns="http://www.w3.org/2000/svg" viewBox="0 0 40 40"><defs><style>.cls-1{fill:#fbfbfd;}.cls-2{fill:#d9e0f0;}.cls-3{fill:#2760ff;}</style></defs><title>add template</title><g id="_circle_" data-name="&lt;circle&gt;"><path class="cls-1" d="M37.78,22.81A17.55,17.55,0,0,0,38,20a1,1,0,0,1,1-1,19.56,19.56,0,0,0-.39-3,.83.83,0,0,1-.22,0,1,1,0,0,1-1-.74,16.85,16.85,0,0,0-.95-2.66,1,1,0,0,1,.47-1.29,18.81,18.81,0,0,0-1.58-2.53,1,1,0,0,1-.59.2A1,1,0,0,1,34,8.62a18.8,18.8,0,0,0-2-2,1,1,0,0,1-.1-1.38,18.67,18.67,0,0,0-2.46-1.67,1,1,0,0,1-.87.51,1,1,0,0,1-.45-.11,17.89,17.89,0,0,0-2.61-1.07,1,1,0,0,1-.65-1.21,19.17,19.17,0,0,0-2.93-.55,1,1,0,0,1-1,.92,19.16,19.16,0,0,0-2.83.08H18a1,1,0,0,1-1-.85,20.07,20.07,0,0,0-2.9.69,1,1,0,0,1-.58,1.26A18.51,18.51,0,0,0,11,4.43a1,1,0,0,1-.5.14,1,1,0,0,1-.84-.47A18.25,18.25,0,0,0,7.27,5.93a1,1,0,0,1,0,1.37A18.73,18.73,0,0,0,5.41,9.45a1,1,0,0,1-.81.42,1,1,0,0,1-.55-.18,19.57,19.57,0,0,0-1.42,2.63,1,1,0,0,1,.55,1.26,17.5,17.5,0,0,0-.8,2.71,1,1,0,0,1-1,.8l-.15,0A18.88,18.88,0,0,0,1,20v0A1,1,0,0,1,2,21a17.6,17.6,0,0,0,.37,2.8,1,1,0,0,1-.73,1.16,18,18,0,0,0,1,2.81A1,1,0,0,1,4,28.2a19.11,19.11,0,0,0,1.48,2.4A1,1,0,0,1,5.26,32a17.45,17.45,0,0,0,2.06,2.15A1,1,0,0,1,8.69,34,17.5,17.5,0,0,0,11,35.6a1,1,0,0,1,.38,1.33,19,19,0,0,0,2.75,1.14,1,1,0,0,1,1.21-.68,16.21,16.21,0,0,0,2.78.51A1,1,0,0,1,19,39c.33,0,.65,0,1,0a18.85,18.85,0,0,0,2-.11,1,1,0,0,1,.83-1.11,18.65,18.65,0,0,0,2.75-.66,1,1,0,0,1,1.23.6,19,19,0,0,0,2.69-1.28,1,1,0,0,1,.31-1.35,17.75,17.75,0,0,0,2.24-1.72,1,1,0,0,1,1.39.06,18.24,18.24,0,0,0,1.92-2.28,1,1,0,0,1-.26-1.35,18,18,0,0,0,1.35-2.48,1,1,0,0,1,1.27-.52A17.36,17.36,0,0,0,38.58,24,1,1,0,0,1,37.78,22.81Z"/><path class="cls-2" d="M39,19h0a1,1,0,0,0-1,1,17.55,17.55,0,0,1-.22,2.81,1,1,0,0,0,.8,1.14h.19a1,1,0,0,0,1-.85A20.2,20.2,0,0,0,40,20v-.08A1,1,0,0,0,39,19Z"/><path class="cls-2" d="M18.14,37.9a16.21,16.21,0,0,1-2.78-.51,1,1,0,0,0-1.21.68v0a1,1,0,0,0,.71,1.23,18.76,18.76,0,0,0,3.08.56H18a1,1,0,0,0,1-.9s0,0,0,0A1,1,0,0,0,18.14,37.9Z"/><path class="cls-2" d="M5.45,30.6A19.11,19.11,0,0,1,4,28.2a1,1,0,0,0-1.3-.45l0,0a1,1,0,0,0-.43,1.34,19.76,19.76,0,0,0,1.65,2.67,1,1,0,0,0,.8.41A1,1,0,0,0,5.23,32l0,0A1,1,0,0,0,5.45,30.6Z"/><path class="cls-2" d="M2.4,23.78A17.6,17.6,0,0,1,2,21,1,1,0,0,0,1,20H1a1,1,0,0,0-.95,1,19.05,19.05,0,0,0,.41,3.11,1,1,0,0,0,1,.79.75.75,0,0,0,.21,0l0,0A1,1,0,0,0,2.4,23.78Z"/><path class="cls-2" d="M25.58,37.12a18.65,18.65,0,0,1-2.75.66A1,1,0,0,0,22,38.89v0a1,1,0,0,0,1,.85l.15,0A18.92,18.92,0,0,0,26.2,39a1,1,0,0,0,.64-1.26l0,0A1,1,0,0,0,25.58,37.12Z"/><path class="cls-2" d="M36.45,27.32A18,18,0,0,1,35.1,29.8a1,1,0,0,0,.26,1.35l0,0a1,1,0,0,0,1.39-.29,20.43,20.43,0,0,0,1.5-2.76,1,1,0,0,0-.51-1.32h-.05A1,1,0,0,0,36.45,27.32Z"/><path class="cls-2" d="M32.05,33.37a17.75,17.75,0,0,1-2.24,1.72,1,1,0,0,0-.31,1.35l0,0a1,1,0,0,0,1.38.29,20,20,0,0,0,2.49-1.91,1,1,0,0,0,.07-1.42h0A1,1,0,0,0,32.05,33.37Z"/><path class="cls-2" d="M11,35.6A17.5,17.5,0,0,1,8.69,34a1,1,0,0,0-1.37.12l0,0a1,1,0,0,0,.14,1.41A20.85,20.85,0,0,0,10,37.34,1,1,0,0,0,11.39,37a.06.06,0,0,1,0,0A1,1,0,0,0,11,35.6Z"/><path class="cls-2" d="M32,6.58a18.8,18.8,0,0,1,2,2,1,1,0,0,0,.77.37,1,1,0,0,0,.59-.2l0,0a1,1,0,0,0,.14-1.4,20.23,20.23,0,0,0-2.17-2.27,1,1,0,0,0-1.41.08l0,0A1,1,0,0,0,32,6.58Z"/><path class="cls-2" d="M36.42,12.61a16.85,16.85,0,0,1,.95,2.66,1,1,0,0,0,1,.74.83.83,0,0,0,.22,0h0a1,1,0,0,0,.7-1.22,20.4,20.4,0,0,0-1-3,1,1,0,0,0-1.33-.5l0,0A1,1,0,0,0,36.42,12.61Z"/><path class="cls-2" d="M25.51,2.86a17.89,17.89,0,0,1,2.61,1.07,1,1,0,0,0,.45.11,1,1,0,0,0,.87-.51l0,0A1,1,0,0,0,29,2.15,19.26,19.26,0,0,0,26.12,1a1,1,0,0,0-1.26.65v0A1,1,0,0,0,25.51,2.86Z"/><path class="cls-2" d="M10.46,4.57a1,1,0,0,0,.5-.14A18.51,18.51,0,0,1,13.5,3.21,1,1,0,0,0,14.08,2a.08.08,0,0,0,0,0,1,1,0,0,0-1.29-.57A21.62,21.62,0,0,0,10,2.7a1,1,0,0,0-.36,1.37l0,0A1,1,0,0,0,10.46,4.57Z"/><path class="cls-2" d="M5.41,9.45A18.73,18.73,0,0,1,7.24,7.3a1,1,0,0,0,0-1.37s0,0,0,0a1,1,0,0,0-1.42,0,21,21,0,0,0-2,2.39A1,1,0,0,0,4,9.68h0a1,1,0,0,0,.55.18A1,1,0,0,0,5.41,9.45Z"/><path class="cls-2" d="M18,2.11h.1A19.16,19.16,0,0,1,20.89,2a1,1,0,0,0,1-.92s0,0,0,0a1,1,0,0,0-1-1,20.5,20.5,0,0,0-3.13.09A1,1,0,0,0,17,1.21a.17.17,0,0,1,0,.05A1,1,0,0,0,18,2.11Z"/><path class="cls-2" d="M2.38,16.29a17.5,17.5,0,0,1,.8-2.71,1,1,0,0,0-.55-1.26l0,0a1,1,0,0,0-1.29.58,21.19,21.19,0,0,0-.89,3,1,1,0,0,0,.78,1.19h.05l.15,0A1,1,0,0,0,2.38,16.29Z"/></g><path id="_plus_" data-name="&lt;plus&gt;" class="cls-3" d="M27,18.5H21.5V13a1.5,1.5,0,0,0-3,0v5.5H13a1.5,1.5,0,0,0,0,3h5.5V27a1.5,1.5,0,0,0,3,0V21.5H27a1.5,1.5,0,0,0,0-3Z"/></svg>