<?xml version="1.0" encoding="utf-8"?>
<!-- Generator: Adobe Illustrator 21.1.0, SVG Export Plug-In . SVG Version: 6.00 Build 0)  -->
<svg version="1.1" id="Layer_1" xmlns="http://www.w3.org/2000/svg" xmlns:xlink="http://www.w3.org/1999/xlink" x="0px" y="0px"
	 viewBox="0 0 20 20" style="enable-background:new 0 0 20 20;" xml:space="preserve">
<title>icon-team</title>
<g>
	<path d="M8,10c1.5,0,2.8-0.7,3.7-1.7c0.7,1,1.9,1.7,3.3,1.7c2.2,0,4-1.8,4-4s-1.8-4-4-4c-0.9,0-1.8,0.3-2.5,0.9C11.7,1.2,10,0,8,0
		C5.2,0,3,2.2,3,5S5.2,10,8,10z M15,4c1.1,0,2,0.9,2,2s-0.9,2-2,2s-2-0.9-2-2S13.9,4,15,4z M8,2c1.7,0,3,1.3,3,3S9.7,8,8,8
		S5,6.7,5,5S6.3,2,8,2z"/>
	<path d="M20,17c0-3.3-2.7-6-6-6c-1.3,0-2.6,0.4-3.6,1.2c-0.1,0-0.1,0.1-0.1,0.1c-0.4-0.1-0.7-0.2-1.1-0.3c-2.1-0.3-4.2,0.2-5.9,1.5
		s-2.8,3.1-3.1,5.3C0,19.4,0.4,19.9,0.9,20H1c0.5,0,0.9-0.4,1-0.9c0.5-3.3,3.5-5.6,6.8-5.1c2.2,0.3,4.1,1.9,4.8,3.9H5
		c-0.6,0-1,0.4-1,1s0.4,1,1,1h11.1l-0.2-1.1c0-0.3-0.1-0.6-0.2-0.9H20V17z M15,16C15,16,14.9,16,15,16c-0.7-1.1-1.6-2-2.6-2.6
		c0.5-0.2,1-0.4,1.6-0.4c1.9,0,3.4,1.3,3.9,3H15z"/>
</g>
</svg>
