<?xml version="1.0" encoding="utf-8"?>
<!-- Generator: Adobe Illustrator 21.1.0, SVG Export Plug-In . SVG Version: 6.00 Build 0)  -->
<svg version="1.1" id="Layer_1" xmlns="http://www.w3.org/2000/svg" xmlns:xlink="http://www.w3.org/1999/xlink" x="0px" y="0px"
	 viewBox="0 0 24 24" style="enable-background:new 0 0 24 24;" xml:space="preserve">
<title>icon-info</title>
<g id="info">
	<path d="M12,4c4.4,0,8,3.6,8,8s-3.6,8-8,8s-8-3.6-8-8C4,7.6,7.6,4,12,4 M12,2C6.5,2,2,6.5,2,12s4.5,10,10,10s10-4.5,10-10
		S17.5,2,12,2z"/>
	<path d="M12,7c-0.6,0-1,0.4-1,1s0.4,1,1,1s1-0.4,1-1S12.6,7,12,7z"/>
	<path d="M12,18c-0.6,0-1-0.4-1-1v-6c0-0.6,0.4-1,1-1c0.6,0,1,0.4,1,1v6C13,17.6,12.6,18,12,18z"/>
</g>
</svg>
