<?xml version="1.0" encoding="utf-8"?>
<!-- Generator: Adobe Illustrator 21.1.0, SVG Export Plug-In . SVG Version: 6.00 Build 0)  -->
<svg version="1.1" id="Layer_1" xmlns="http://www.w3.org/2000/svg" xmlns:xlink="http://www.w3.org/1999/xlink" x="0px" y="0px"
	 viewBox="0 0 24 24" style="enable-background:new 0 0 24 24;" xml:space="preserve">
<title>icon-annotation</title>
<g>
	<path d="M5.4,10.9c0.4,0,0.8-0.1,1.3-0.3c0.8,1.3,1.4,2.7,1.8,4.1C8.6,15,8.7,15.2,9,15.3c0.1,0.1,0.3,0.1,0.5,0.1
		c0.1,0,0.2,0,0.3,0c0.6-0.2,1.6-0.9,2.5-1.7l3,3.1c0.2,0.2,0.5,0.3,0.7,0.3c0.3,0,0.5-0.1,0.7-0.3c0.4-0.4,0.4-1,0-1.4l-3.1-3.1
		c0.9-0.9,1.5-1.9,1.7-2.5c0.1-0.3,0.1-0.5-0.1-0.8S15,8.6,14.7,8.5c-1.4-0.4-2.8-1.1-4.1-1.9c0.5-1.2,0.4-2.2-0.4-3
		C9.8,3.2,9.2,2.9,8.6,2.9l0,0c-1.5,0-2.9,1.2-3.6,1.9c-2,2-2.5,4.1-1.3,5.3C4.1,10.7,4.8,10.9,5.4,10.9z M13,10c-0.7,0.9-2,2.2-3,3
		c-0.4-1.2-1-2.3-1.7-3.4C8.6,9.4,8.8,9.1,9,9c0.2-0.2,0.4-0.4,0.6-0.7C10.7,9,11.8,9.6,13,10z M6.4,6.3c0.6-0.7,1.3-1.2,2.2-1.4
		c0.1,0,0.2,0,0.3,0.1c0.3,0.3-0.2,1.5-1.3,2.5C7,8.2,6.3,8.7,5.4,8.9c-0.1,0-0.2,0-0.3-0.1C4.8,8.5,5.3,7.3,6.4,6.3z"/>
	<path d="M13.7,2c-0.6,0-1,0.4-1,1s0.4,1,1,1H20v16H4v-6c0-0.6-0.4-1-1-1s-1,0.4-1,1v8h20V2H13.7z"/>
</g>
</svg>
