<?xml version="1.0" encoding="utf-8"?>
<!-- Generator: Adobe Illustrator 21.1.0, SVG Export Plug-In . SVG Version: 6.00 Build 0)  -->
<svg version="1.1" id="Layer_1" xmlns="http://www.w3.org/2000/svg" xmlns:xlink="http://www.w3.org/1999/xlink" x="0px" y="0px"
	 viewBox="0 0 24 24" style="enable-background:new 0 0 24 24;" xml:space="preserve">
<title>icon-file-explorer</title>
<g>
	<path d="M4,2v20h16V2H4z M18,20H6V4h12V20z"/>
	<path d="M8,17c0.3,0,0.5-0.1,0.7-0.3l3-3c0.5,0.3,1.1,0.5,1.7,0.5c2,0,3.6-1.6,3.6-3.6c0-2-1.6-3.6-3.6-3.6c-2,0-3.6,1.6-3.6,3.6
		c0,0.6,0.2,1.2,0.5,1.7l-3,3c-0.4,0.4-0.4,1,0,1.4C7.5,16.9,7.7,17,8,17z M13.4,9c0.9,0,1.6,0.7,1.6,1.6c0,0.9-0.7,1.6-1.6,1.6
		c-0.9,0-1.6-0.7-1.6-1.6C11.8,9.7,12.5,9,13.4,9z"/>
</g>
</svg>
