<?xml version="1.0" encoding="utf-8"?>
<!-- Generator: Adobe Illustrator 21.1.0, SVG Export Plug-In . SVG Version: 6.00 Build 0)  -->
<svg version="1.1" id="Layer_1" xmlns="http://www.w3.org/2000/svg" xmlns:xlink="http://www.w3.org/1999/xlink" x="0px" y="0px"
	 viewBox="0 0 20 20" style="enable-background:new 0 0 20 20;" xml:space="preserve">
<title>icon-activity</title>
<g id="activity">
	<path d="M13,20c-0.5,0-0.9-0.4-1-0.8L9.9,6.3L8,15.2C7.9,15.7,7.5,16,7,16l0,0c-0.5,0-0.9-0.3-1-0.8L4.6,9l-0.7,1.5
		C3.7,10.8,3.4,11,3,11H1c-0.6,0-1-0.4-1-1s0.4-1,1-1h1.4l1.7-3.4C4.3,5.2,4.7,5,5.1,5C5.5,5.1,5.9,5.4,6,5.8l1,4.5l2-9.5
		C9.1,0.3,9.6,0,10,0c0.5,0,0.9,0.4,1,0.8l2,11.8l1-6.8C14.1,5.4,14.4,5,14.8,5c0.4-0.1,0.9,0.2,1,0.5l1.7,3.4H19c0.6,0,1,0.4,1,1
		s-0.4,1-1,1h-2c-0.4,0-0.7-0.2-0.9-0.6l-0.6-1.2L14,19.2C13.9,19.6,13.5,20,13,20L13,20z"/>
</g>
</svg>
