<?xml version="1.0" encoding="utf-8"?>
<!-- Generator: Adobe Illustrator 21.0.0, SVG Export Plug-In . SVG Version: 6.00 Build 0)  -->
<svg version="1.1" id="Layer_1" xmlns="http://www.w3.org/2000/svg" xmlns:xlink="http://www.w3.org/1999/xlink" x="0px" y="0px"
	 viewBox="0 0 24 24" style="enable-background:new 0 0 24 24;" xml:space="preserve">
<title>graph</title>
<g id="graph">
	<path d="M18,15.3c-3.3,0-6-2.7-6-6s2.7-6,6-6s6,2.7,6,6S21.3,15.3,18,15.3z M18,5.7c-2,0-3.6,1.6-3.6,3.6s1.6,3.6,3.6,3.6
		s3.6-1.6,3.6-3.6S20,5.7,18,5.7z"/>
	<path d="M6,23.1c-2.3,0-4.2-1.9-4.2-4.2s1.9-4.2,4.2-4.2s4.2,1.9,4.2,4.2S8.3,23.1,6,23.1z M6,17.1c-1,0-1.8,0.8-1.8,1.8
		S5,20.7,6,20.7s1.8-0.8,1.8-1.8S7,17.1,6,17.1z"/>
	<circle cx="3" cy="3.9" r="1.8"/>
	<path d="M3,6.9c-1.7,0-3-1.3-3-3s1.3-3,3-3s3,1.3,3,3S4.7,6.9,3,6.9z M3,3.3c-0.3,0-0.6,0.3-0.6,0.6c0,0.3,0.3,0.6,0.6,0.6
		s0.6-0.3,0.6-0.6C3.6,3.6,3.3,3.3,3,3.3z"/>
	<path d="M4.8,16.5c-0.6,0-1.1-0.5-1.2-1.1L2.4,5.8C2.3,5.2,2.8,4.6,3.5,4.5s1.3,0.4,1.3,1.1L6,15.2c0.1,0.7-0.4,1.3-1,1.3L4.8,16.5
		z"/>
	<rect x="7.6" y="14.2" transform="matrix(0.7869 -0.617 0.617 0.7869 -7.0455 10.4619)" width="8.1" height="2.4"/>
</g>
</svg>
