<?xml version="1.0" encoding="utf-8"?>
<!-- Generator: Adobe Illustrator 21.1.0, SVG Export Plug-In . SVG Version: 6.00 Build 0)  -->
<svg version="1.1" id="Layer_1" xmlns="http://www.w3.org/2000/svg" xmlns:xlink="http://www.w3.org/1999/xlink" x="0px" y="0px"
	 viewBox="0 0 24 24" style="enable-background:new 0 0 24 24;" xml:space="preserve">
<title>icon-feedback</title>
<g>
	<path d="M12,2C12,2,12,2,12,2C12,2,12,2,12,2c-0.4,0-0.7,0.2-0.9,0.5c0,0,0,0,0,0c0,0.1,0,0.2-0.1,0.2c0,0,0,0.1,0,0.1c0,0,0,0,0,0
		c0,0,0,0,0,0v6c0,0.6,0.4,1,1,1c0.6,0,1-0.4,1-1V4.1c2.2,0.5,3.9,2.5,4,4.9c0,1.6-0.5,2.4-1.2,3.4c-0.4,0.6-0.8,1.3-1.2,2.1
		C14.5,14.6,13.8,15,12,15c-1.8,0-2.5-0.4-2.6-0.5C9,13.6,8.6,13,8.2,12.4C7.5,11.4,7,10.6,7,9c0-1.4,0.6-2.7,1.7-3.6
		C9.1,5,9.1,4.4,8.7,4c-0.4-0.4-1-0.4-1.4-0.1C5.9,5.2,5.1,7,5,9c0,2.2,0.8,3.4,1.5,4.5C7.3,14.6,8,15.7,8,18c0,2.2,1.8,4,4,4
		c2.2,0,4-1.8,4-4c0-2.3,0.7-3.4,1.5-4.5C18.2,12.4,19,11.2,19,9C18.9,5.2,15.8,2.1,12,2z M12,20c-1.1,0-2-0.9-2-2
		c0-0.4,0-0.8-0.1-1.2c0.6,0.1,1.2,0.2,2.1,0.2c0.8,0,1.5-0.1,2.1-0.2c0,0.4-0.1,0.8-0.1,1.2C14,19.1,13.1,20,12,20z"/>
	<circle cx="12" cy="12" r="1"/>
</g>
</svg>
