<svg xmlns="http://www.w3.org/2000/svg" viewBox="0 0 24 24"><defs><style>.cls-1{fill:#231f20;}</style></defs><title>icon-fullscreen_1</title><g id="fullscreen-2" data-name="fullscreen"><path class="cls-1" d="M18.22,4.75a.92.92,0,0,0-.42-.23l-4.06,0a.92.92,0,0,0-.91.88.88.88,0,0,0,.25.64.91.91,0,0,0,.66.28H15.4l-3,3a.92.92,0,0,0,0,1.28.84.84,0,0,0,.63.28h0a.93.93,0,0,0,.66-.26c.14-.13.27-.27.4-.41L16.7,7.6V9.26a.91.91,0,0,0,.88.91,1,1,0,0,0,.64-.25.91.91,0,0,0,.28-.66V5.4A.9.9,0,0,0,18.22,4.75Z"/><path class="cls-1" d="M11,11.17a.9.9,0,0,0-.68.27l-.35.34L7.3,14.4V12.74a.91.91,0,0,0-.88-.91.84.84,0,0,0-.63.25.88.88,0,0,0-.29.66V16.6a.87.87,0,0,0,.29.65.78.78,0,0,0,.4.23l4.07,0a.92.92,0,0,0,.91-.88.87.87,0,0,0-.25-.64.91.91,0,0,0-.66-.28H8.6l3-3a.92.92,0,0,0,0-1.28A.83.83,0,0,0,11,11.17Z"/></g></svg>