<svg xmlns="http://www.w3.org/2000/svg" viewBox="0 0 24 24"><title>icon-eyeball</title><g id="guide"><path d="M12,16a4,4,0,1,1,4-4A4.0039,4.0039,0,0,1,12,16Zm0-6a2,2,0,1,0,2,2A2.0027,2.0027,0,0,0,12,10Z"/><path d="M12,20c-7.666,0-9.9395-7.6484-9.9619-7.7256L1.96,12l.0781-.2744C2.0605,11.6484,4.334,4,12,4s9.9395,7.6484,9.9619,7.7256L22.04,12l-.0781.2744C21.94,12.3516,19.666,20,12,20ZM4.0518,12C4.4883,13.2285,6.5332,18,12,18s7.5127-4.7725,7.9482-6C19.5137,10.7754,17.4688,6,12,6,6.5332,6,4.4883,10.7715,4.0518,12Z"/></g></svg>