<?xml version="1.0" encoding="utf-8"?>
<!-- Generator: Adobe Illustrator 21.1.0, SVG Export Plug-In . SVG Version: 6.00 Build 0)  -->
<svg version="1.1" id="Layer_1" xmlns="http://www.w3.org/2000/svg" xmlns:xlink="http://www.w3.org/1999/xlink" x="0px" y="0px"
	 viewBox="0 0 24 24" style="enable-background:new 0 0 24 24;" xml:space="preserve">
<title>icon-lock-filled</title>
<path d="M16,10V6c0-2.2-1.8-4-4-4C9.8,2,8,3.8,8,6v4H5v12h14V10H16z M13,17c0,0.6-0.4,1-1,1s-1-0.4-1-1v-2c0-0.6,0.4-1,1-1
	s1,0.4,1,1V17z M14,10h-4V6c0-1.1,0.9-2,2-2c1.1,0,2,0.9,2,2V10z"/>
</svg>
