<?xml version="1.0" encoding="utf-8"?>
<!-- Generator: Adobe Illustrator 21.1.0, SVG Export Plug-In . SVG Version: 6.00 Build 0)  -->
<svg version="1.1" id="Layer_1" xmlns="http://www.w3.org/2000/svg" xmlns:xlink="http://www.w3.org/1999/xlink" x="0px" y="0px"
	 viewBox="0 0 24 24" style="enable-background:new 0 0 24 24;" xml:space="preserve">
<title>icon-size-to-fit</title>
<g>
	<rect x="9" y="9" width="6" height="6"/>
	<path d="M7,11H5.4l0.3-0.3c0.4-0.4,0.4-1,0-1.4s-1-0.4-1.4,0L1.6,12l2.7,2.7C4.5,14.9,4.7,15,5,15s0.5-0.1,0.7-0.3
		c0.4-0.4,0.4-1,0-1.4L5.4,13H7c0.6,0,1-0.4,1-1C8,11.4,7.6,11,7,11z"/>
	<path d="M13.3,18.3L13,18.6V17c0-0.6-0.4-1-1-1c-0.6,0-1,0.4-1,1v1.6l-0.3-0.3c-0.4-0.4-1-0.4-1.4,0s-0.4,1,0,1.4l2.7,2.7l2.7-2.7
		c0.4-0.4,0.4-1,0-1.4S13.7,17.9,13.3,18.3z"/>
	<path d="M19.7,9.3c-0.4-0.4-1-0.4-1.4,0s-0.4,1,0,1.4l0.3,0.3H17c-0.6,0-1,0.4-1,1c0,0.6,0.4,1,1,1h1.6l-0.3,0.3
		c-0.4,0.4-0.4,1,0,1.4c0.2,0.2,0.5,0.3,0.7,0.3s0.5-0.1,0.7-0.3l2.7-2.7L19.7,9.3z"/>
	<path d="M12,1.6L9.3,4.3c-0.4,0.4-0.4,1,0,1.4s1,0.4,1.4,0L11,5.4V7c0,0.6,0.4,1,1,1c0.6,0,1-0.4,1-1V5.4l0.3,0.3
		C13.5,5.9,13.7,6,14,6s0.5-0.1,0.7-0.3c0.4-0.4,0.4-1,0-1.4L12,1.6z"/>
</g>
</svg>
