<?xml version="1.0" encoding="utf-8"?>
<!-- Generator: Adobe Illustrator 21.1.0, SVG Export Plug-In . SVG Version: 6.00 Build 0)  -->
<svg version="1.1" id="Layer_1" xmlns="http://www.w3.org/2000/svg" xmlns:xlink="http://www.w3.org/1999/xlink" x="0px" y="0px"
	 viewBox="0 0 20 20" style="enable-background:new 0 0 20 20;" xml:space="preserve">
<title>icon-discover</title>
<g>
	<path d="M19,5.6c-0.2-0.5-0.8-0.7-1.3-0.5c-0.5,0.2-0.7,0.8-0.5,1.3c0.9,1.9,1.1,4.1,0.4,6.1s-2.1,3.7-4,4.6
		c-1.9,0.9-4.1,1.1-6.1,0.4c-2-0.7-3.7-2.1-4.6-4S1.8,9.4,2.5,7.4s2.1-3.7,4-4.6c2.2-1.1,4.9-1.1,7.1,0c0.5,0.2,1.1,0,1.3-0.5
		c0.2-0.5,0-1.1-0.5-1.3c-2.8-1.4-6.1-1.4-8.9,0c-2.4,1.2-4.2,3.2-5,5.8C-0.3,9.3-0.1,12,1,14.4c1.2,2.4,3.2,4.2,5.8,5
		C7.9,19.8,8.9,20,10,20c1.5,0,3-0.3,4.4-1c2.4-1.2,4.2-3.2,5-5.8C20.3,10.7,20.1,8,19,5.6z"/>
	<path d="M10,4c-3.3,0-6,2.7-6,6s2.7,6,6,6s6-2.7,6-6S13.3,4,10,4z M10,14c-2.2,0-4-1.8-4-4s1.8-4,4-4s4,1.8,4,4S12.2,14,10,14z"/>
	<circle cx="10" cy="10" r="2"/>
</g>
</svg>
