<?xml version="1.0" encoding="utf-8"?>
<!-- Generator: Adobe Illustrator 21.1.0, SVG Export Plug-In . SVG Version: 6.00 Build 0)  -->
<svg version="1.1" id="Layer_1" xmlns="http://www.w3.org/2000/svg" xmlns:xlink="http://www.w3.org/1999/xlink" x="0px" y="0px"
	 viewBox="0 0 24 24" style="enable-background:new 0 0 24 24;" xml:space="preserve">
<title>icon-document</title>
<g>
	<path d="M4,2v20h16V2H4z M18,20H6V4h12V20z"/>
	<path d="M9,9h6c0.6,0,1-0.4,1-1s-0.4-1-1-1H9C8.4,7,8,7.4,8,8S8.4,9,9,9z"/>
	<path d="M9,13h6c0.6,0,1-0.4,1-1c0-0.6-0.4-1-1-1H9c-0.6,0-1,0.4-1,1C8,12.6,8.4,13,9,13z"/>
	<path d="M9,17h4c0.6,0,1-0.4,1-1s-0.4-1-1-1H9c-0.6,0-1,0.4-1,1S8.4,17,9,17z"/>
</g>
</svg>
