<?xml version="1.0" encoding="utf-8"?>
<!-- Generator: Adobe Illustrator 21.1.0, SVG Export Plug-In . SVG Version: 6.00 Build 0)  -->
<svg version="1.1" id="Layer_1" xmlns="http://www.w3.org/2000/svg" xmlns:xlink="http://www.w3.org/1999/xlink" x="0px" y="0px"
	 viewBox="0 0 24 24" style="enable-background:new 0 0 24 24;" xml:space="preserve">
<title>icon-channel</title>
<g id="Channels">
	<path d="M21,20c-0.3,0-0.5-0.1-0.7-0.3L18,17.4l-2.3,2.3c-0.4,0.4-1,0.4-1.4,0L12,17.4l-2.3,2.3c-0.4,0.4-1,0.4-1.4,0L6,17.4
		l-2.3,2.3c-0.4,0.4-1,0.4-1.4,0s-0.4-1,0-1.4l3-3c0.4-0.4,1-0.4,1.4,0L9,17.6l2.3-2.3c0.4-0.4,1-0.4,1.4,0l2.3,2.3l2.3-2.3
		c0.4-0.4,1-0.4,1.4,0l3,3c0.4,0.4,0.4,1,0,1.4C21.5,19.9,21.3,20,21,20z"/>
	<path d="M21,14c-0.3,0-0.5-0.1-0.7-0.3L18,11.4l-2.3,2.3c-0.4,0.4-1,0.4-1.4,0L12,11.4l-2.3,2.3c-0.4,0.4-1,0.4-1.4,0L6,11.4
		l-2.3,2.3c-0.4,0.4-1,0.4-1.4,0s-0.4-1,0-1.4l3-3c0.4-0.4,1-0.4,1.4,0L9,11.6l2.3-2.3c0.4-0.4,1-0.4,1.4,0l2.3,2.3l2.3-2.3
		c0.4-0.4,1-0.4,1.4,0l3,3c0.4,0.4,0.4,1,0,1.4C21.5,13.9,21.3,14,21,14z"/>
	<path d="M21,8c-0.3,0-0.5-0.1-0.7-0.3L18,5.4l-2.3,2.3c-0.4,0.4-1,0.4-1.4,0L12,5.4L9.7,7.7c-0.4,0.4-1,0.4-1.4,0L6,5.4L3.7,7.7
		c-0.4,0.4-1,0.4-1.4,0s-0.4-1,0-1.4l3-3c0.4-0.4,1-0.4,1.4,0L9,5.6l2.3-2.3c0.4-0.4,1-0.4,1.4,0L15,5.6l2.3-2.3
		c0.4-0.4,1-0.4,1.4,0l3,3c0.4,0.4,0.4,1,0,1.4C21.5,7.9,21.3,8,21,8z"/>
</g>
</svg>
