<?xml version="1.0" encoding="utf-8"?>
<!-- Generator: Adobe Illustrator 21.1.0, SVG Export Plug-In . SVG Version: 6.00 Build 0)  -->
<svg version="1.1" id="Layer_1" xmlns="http://www.w3.org/2000/svg" xmlns:xlink="http://www.w3.org/1999/xlink" x="0px" y="0px"
	 viewBox="0 0 20 20" style="enable-background:new 0 0 20 20;" xml:space="preserve">
<title>icon-explore-dataset</title>
<path d="M15,5.1C15,5,15,5,15,5.1V0H0v15h5c0.6,0,1-0.4,1-1s-0.4-1-1-1H2V2h11v3v0.1C10.2,5.6,8,8,8,11c0,1.3,0.4,2.5,1.1,3.4
	l-3.9,3.9c-0.4,0.4-0.4,1,0,1.4C5.3,19.9,5.6,20,5.9,20c0.3,0,0.5-0.1,0.7-0.3l3.9-3.9c1,0.7,2.2,1.1,3.5,1.1c3.3,0,6-2.7,6-6
	C20,8,17.8,5.6,15,5.1z M14,15c-2.2,0-4-1.8-4-4s1.8-4,4-4s4,1.8,4,4S16.2,15,14,15z"/>
</svg>
