<?xml version="1.0" encoding="utf-8"?>
<!-- Generator: Adobe Illustrator 21.1.0, SVG Export Plug-In . SVG Version: 6.00 Build 0)  -->
<svg version="1.1" id="Layer_1" xmlns="http://www.w3.org/2000/svg" xmlns:xlink="http://www.w3.org/1999/xlink" x="0px" y="0px"
	 viewBox="0 0 24 24" style="enable-background:new 0 0 24 24;" xml:space="preserve">
<title>icon-zoom-in</title>
<g id="Zoom_In">
	<path d="M12,6c3.3,0,6,2.7,6,6s-2.7,6-6,6s-6-2.7-6-6C6,8.7,8.7,6,12,6 M12,4c-4.4,0-8,3.6-8,8l0,0c0,4.4,3.6,8,8,8s8-3.6,8-8l0,0
		C20,7.6,16.4,4,12,4z"/>
	<path d="M15,13H9c-0.6,0-1-0.4-1-1c0-0.6,0.4-1,1-1h6c0.6,0,1,0.4,1,1C16,12.6,15.6,13,15,13z"/>
	<path d="M12,16c-0.6,0-1-0.4-1-1V9c0-0.6,0.4-1,1-1c0.6,0,1,0.4,1,1v6C13,15.6,12.6,16,12,16z"/>
</g>
</svg>
