<svg xmlns="http://www.w3.org/2000/svg" viewBox="0 0 40 40"><defs><style>.cls-1{fill:none;}.cls-2{fill:#231f20;}</style></defs><title>kitchen timer</title><g id="kitchen_timer" data-name="kitchen timer"><path class="cls-1" d="M24.58,18.16a5,5,0,0,0-3.27-3l3.39,6.41A5.07,5.07,0,0,0,24.58,18.16Z"/><path class="cls-1" d="M17.62,24.3l-1.83-7a5.09,5.09,0,0,0-.37,4.44A5,5,0,0,0,17.62,24.3Z"/><path class="cls-1" d="M17,13.83,19.85,25h0v.09l.56,2.17a4.29,4.29,0,0,0,2.42.09h0a4,4,0,0,0,1.71-1.74L18.11,13.38l-.05-.11c-.2-.52-.65-.8-.93-.69s-.41.61-.21,1.14Z"/><path class="cls-2" d="M20,0C9,0,.1,8,0,17.77V36.19A4,4,0,0,0,4.2,40H8a1,1,0,0,0,0-2H4.2A2,2,0,0,1,2,36.19V17.81C2.07,9.09,10.12,2,20,2S37.93,9.09,38,17.81V36.19A2,2,0,0,1,35.8,38H14a1,1,0,1,0,0,2H35.8A4,4,0,0,0,40,36.19V17.86C40,8,31,0,20,0Z"/><path class="cls-2" d="M20,8.5a1,1,0,0,0,1-1V5a1,1,0,0,0-2,0V7.5A1,1,0,0,0,20,8.5Z"/><path class="cls-2" d="M11.54,10.11h0L10.12,8.7a1,1,0,0,0-1.41,0,1,1,0,0,0-.29.71,1,1,0,0,0,.29.7l1.76,1.76a1,1,0,0,0,.71.3,1,1,0,0,0,1-1,1,1,0,0,0-.29-.71Z"/><path class="cls-2" d="M7.54,19H5.05a1,1,0,0,0,0,2H7.54a1,1,0,0,0,0-2Z"/><path class="cls-2" d="M32.5,21H35a1,1,0,0,0,0-2H32.5a1,1,0,0,0,0,2Z"/><path class="cls-2" d="M29.89,8.67l-1.76,1.76a1,1,0,0,0,.7,1.71,1,1,0,0,0,.71-.29l.35-.35h0l1.41-1.42a1,1,0,0,0,0-1.41A1,1,0,0,0,29.89,8.67Z"/><path class="cls-2" d="M13.55,22.45a7,7,0,0,0,4.69,4.25l.29,1.12s0,.08,0,.11c.22.58.84,1.3,2.53,1.47a5.69,5.69,0,0,0,.72,0,5.25,5.25,0,0,0,1.77-.26,6,6,0,0,0,2-1.52c1.12-1.27,1.09-2.22.87-2.79a.54.54,0,0,0-.05-.11l-.54-1A7.06,7.06,0,0,0,20.15,13l-.25-.46a2.81,2.81,0,0,0-3.49-1.77A2.8,2.8,0,0,0,15,14.38l.13.51A7.07,7.07,0,0,0,13.55,22.45Zm11-4.29a5.07,5.07,0,0,1,.12,3.39l-3.39-6.41A5,5,0,0,1,24.58,18.16Zm-7.45-5.58c.28-.11.73.17.93.69l.05.11,6.46,12.19a4,4,0,0,1-1.71,1.74h0a4.29,4.29,0,0,1-2.42-.09l-.56-2.17V25h0L17,13.83l0-.11C16.72,13.19,16.87,12.69,17.13,12.58Zm-1.34,4.71,1.83,7a5,5,0,0,1-2.2-2.57A5.09,5.09,0,0,1,15.79,17.29Z"/></g></svg>