<?xml version="1.0" encoding="utf-8"?>
<!-- Generator: Adobe Illustrator 21.1.0, SVG Export Plug-In . SVG Version: 6.00 Build 0)  -->
<svg version="1.1" id="Layer_1" xmlns="http://www.w3.org/2000/svg" xmlns:xlink="http://www.w3.org/1999/xlink" x="0px" y="0px"
	 viewBox="0 0 24 24" style="enable-background:new 0 0 24 24;" xml:space="preserve">
<title>icon-upload</title>
<path d="M2,2v20h11V11.4l2.3,2.3c0.2,0.2,0.5,0.3,0.7,0.3s0.5-0.1,0.7-0.3c0.4-0.4,0.4-1,0-1.4L12,7.6l-4.7,4.7
	c-0.4,0.4-0.4,1,0,1.4s1,0.4,1.4,0l2.3-2.3V20H4V4h16v16h-3c-0.6,0-1,0.4-1,1s0.4,1,1,1h5V2H2z"/>
</svg>
