<?xml version="1.0" encoding="utf-8"?>
<!-- Generator: Adobe Illustrator 21.1.0, SVG Export Plug-In . SVG Version: 6.00 Build 0)  -->
<svg version="1.1" id="Layer_1" xmlns="http://www.w3.org/2000/svg" xmlns:xlink="http://www.w3.org/1999/xlink" x="0px" y="0px"
	 viewBox="0 0 24 24" style="enable-background:new 0 0 24 24;" xml:space="preserve">
<title>icon-organization</title>
<g>
	<path d="M16,4V2H2v19c0,0.6,0.4,1,1,1s1-0.4,1-1V4h10v17c0,0.6,0.4,1,1,1s1-0.4,1-1V6h4v14h-1c-0.6,0-1,0.4-1,1s0.4,1,1,1h3V4H16z"
		/>
	<rect x="6" y="6" width="2" height="4"/>
	<rect x="10" y="6" width="2" height="4"/>
	<rect x="17" y="8" width="2" height="2"/>
	<rect x="17" y="12" width="2" height="2"/>
	<rect x="17" y="16" width="2" height="2"/>
	<rect x="6" y="12" width="2" height="4"/>
	<rect x="7" y="18" width="4" height="4"/>
	<rect x="10" y="12" width="2" height="4"/>
</g>
</svg>
