<svg viewBox="0 0 26 20" preserveAspectRatio="xMidYMid meet" focusable="false" style="pointer-events: none; display: block; width: 100%; height: 100%;"><g viewBox="0 0 26 20"><path fill="currentColor" d="M24.9971018,13.504348 L24.7971018,13.1333335 C24.3411415,12.2849944 24.1021568,11.337022 24.1014496,10.3739132 C24.1014496,8.92463781 22.7420293,7.21159431 18.9159423,7.21159431 C18.0016252,7.18644546 17.0983532,7.416278 16.3072466,7.87536244 C16.0897121,8.00910272 15.8841192,8.16135787 15.6927539,8.33043491 C15.3728533,8.61716633 15.0991023,8.95153359 14.8811596,9.32173927 L14.3188408,5.20289863 C14.0965762,3.43862217 13.0887469,1.86934891 11.5768118,0.933333346 C10.5482095,0.333673112 9.37283598,0.0325526666 8.18260882,0.063768116 C6.79957793,0.0613013842 5.42658965,0.298632215 4.12463774,0.765217402 C2.37971018,1.46956524 1.44927538,2.62608699 1.44927538,4.11884064 C1.45096275,5.4337201 1.1262813,6.72846209 0.504347834,7.88695664 L0.240579714,8.37971027 C0.0916077139,8.65649969 0.0595599043,8.98138354 0.151579729,9.28194534 C0.243599554,9.58250713 0.452038208,9.83376379 0.730434793,9.97971029 C1.11619181,10.1836471 1.35478137,10.586897 1.34782611,11.0231886 C1.32173915,11.9942031 1.48405799,13.3420292 2.42318844,14.3188408 C3.13043483,15.046377 4.1623189,15.414493 5.44927544,15.414493 C5.72941989,15.414493 5.95652183,15.187391 5.95652183,14.9072466 C5.95652183,14.6271022 5.72941989,14.4000002 5.44927544,14.4000002 C4.43188412,14.4000002 3.66086962,14.1333335 3.15072468,13.6115944 C2.4608696,12.9014495 2.34202902,11.8260871 2.36231888,11.0492755 C2.3801033,10.2265142 1.93115615,9.46442637 1.20289857,9.08115955 C1.16476151,9.06087165 1.13628441,9.0262189 1.12377188,8.98487314 C1.11125935,8.94352739 1.11574362,8.89889949 1.1362319,8.8608697 L1.40000002,8.36811607 C2.09929006,7.06606539 2.46572339,5.61128523 2.4666667,4.13333339 C2.4666667,1.13913045 7.95652186,1.10434784 8.18840592,1.10434784 C9.190329,1.07139274 10.1817306,1.31723625 11.0521741,1.81449278 C12.3032243,2.59156891 13.1362516,3.89224197 13.3188408,5.35362327 L15.2057973,19.3739133 C15.2391589,19.6255571 15.453402,19.8137938 15.7072466,19.814493 L15.7768118,19.814493 C15.9119561,19.796592 16.0342066,19.7250465 16.1160014,19.6159867 C16.1977963,19.5069269 16.2322498,19.3695337 16.2115944,19.2347829 L15.3246379,12.6376813 L15.2666669,11.9942031 C15.1119917,10.7005932 15.7258164,9.43557064 16.8376814,8.75652187 C17.4724483,8.39566487 18.1949115,8.21805933 18.924638,8.24347838 C19.0956525,8.24347838 23.0956525,8.26666679 23.0956525,10.3913045 C23.0962458,11.5189546 23.3750128,12.6290446 23.9072467,13.6231886 L24.1072467,13.9855075 C23.5179607,14.295136 23.1543371,14.9112759 23.1681163,15.5768118 C23.182609,16.1362321 23.1014496,16.9101452 22.6115945,17.4115945 C22.2550728,17.7797104 21.7043481,17.9652177 20.9739134,17.9652177 C20.6937689,17.9652177 20.466667,18.1923196 20.466667,18.472464 C20.466667,18.7526085 20.6937689,18.9797104 20.9739134,18.9797104 C21.9855076,18.9797104 22.782609,18.6898554 23.3391308,18.1101452 C24.0753627,17.3536234 24.208696,16.2956524 24.1826091,15.5391307 C24.1787276,15.2605629 24.3324178,15.0036646 24.5797105,14.8753625 C24.8190735,14.7503458 24.9983133,14.5345716 25.0773083,14.2763399 C25.1563032,14.0181082 25.1284561,13.7389846 25.0000004,13.5014495 L24.9971018,13.504348 Z"></path></g></svg>
