<?xml version="1.0" encoding="utf-8"?>
<!-- Generator: Adobe Illustrator 21.1.0, SVG Export Plug-In . SVG Version: 6.00 Build 0)  -->
<svg version="1.1" id="Layer_1" xmlns="http://www.w3.org/2000/svg" xmlns:xlink="http://www.w3.org/1999/xlink" x="0px" y="0px"
	 viewBox="0 0 24 24" style="enable-background:new 0 0 24 24;" xml:space="preserve">
<title>icon-done-check-circle</title>
<path d="M18.7,4.5l-0.9-0.8l-6.1,9.8l-3.1-2.3c-0.4-0.3-1.1-0.2-1.4,0.2c-0.3,0.4-0.2,1.1,0.2,1.4l4.9,3.7l5.9-9.5
	C19.3,8.3,20,10.1,20,12c0,4.4-3.6,8-8,8s-8-3.6-8-8s3.6-8,8-8c0.6,0,1-0.4,1-1s-0.4-1-1-1C6.5,2,2,6.5,2,12c0,5.5,4.5,10,10,10
	c5.5,0,10-4.5,10-10C22,9.2,20.8,6.4,18.7,4.5z"/>
</svg>
