<?xml version="1.0" encoding="utf-8"?>
<!-- Generator: Adobe Illustrator 21.1.0, SVG Export Plug-In . SVG Version: 6.00 Build 0)  -->
<svg version="1.1" id="Layer_1" xmlns="http://www.w3.org/2000/svg" xmlns:xlink="http://www.w3.org/1999/xlink" x="0px" y="0px"
	 viewBox="0 0 20 20" style="enable-background:new 0 0 20 20;" xml:space="preserve">
<title>icon-workspaces</title>
<g>
	<path d="M15,8c0,0.6,0.4,1,1,1h2v9H8V9h4c0.6,0,1-0.4,1-1s-0.4-1-1-1H6v4.9C3.7,11.4,2,9.4,2,7c0-1.3,0.5-2.6,1.5-3.5
		C4.4,2.5,5.7,2,7,2l0,0c1.8,0,3.4,1,4.3,2.5c0.3,0.5,0.9,0.6,1.4,0.4c0.5-0.3,0.6-0.9,0.4-1.4C11.8,1.3,9.5,0,7,0l0,0
		C5.1,0,3.4,0.7,2.1,2C0.7,3.4,0,5.1,0,7c0,3.5,2.6,6.4,6,6.9V20h14V7h-4C15.4,7,15,7.4,15,8z"/>
	<circle cx="17.5" cy="2.5" r="2.5"/>
</g>
</svg>
