<?xml version="1.0" encoding="utf-8"?>
<!-- Generator: Adobe Illustrator 22.1.0, SVG Export Plug-In . SVG Version: 6.00 Build 0)  -->
<svg version="1.1" id="direct-download" xmlns="http://www.w3.org/2000/svg" xmlns:xlink="http://www.w3.org/1999/xlink" x="0px"
	 y="0px" viewBox="0 0 24 24" style="enable-background:new 0 0 24 24;" xml:space="preserve">
<title>icon-direct-download copy</title>
<g>
	<path d="M11.3,15.7c0.1,0.1,0.2,0.2,0.3,0.2C11.7,16,11.9,16,12,16s0.3,0,0.4-0.1c0.1-0.1,0.2-0.1,0.3-0.2l3-3c0.4-0.4,0.4-1,0-1.4
		s-1-0.4-1.4,0L13,12.6V8c0-0.6-0.4-1-1-1s-1,0.4-1,1v4.6l-1.3-1.3c-0.4-0.4-1-0.4-1.4,0s-0.4,1,0,1.4L11.3,15.7z"/>
	<circle cx="12" cy="5" r="1"/>
	<path d="M19,11c-0.6,0-1,0.4-1,1v6H6v-6c0-0.6-0.4-1-1-1s-1,0.4-1,1v8h16v-8C20,11.4,19.6,11,19,11z"/>
</g>
</svg>
