<?xml version="1.0" encoding="utf-8"?>
<!-- Generator: Adobe Illustrator 21.1.0, SVG Export Plug-In . SVG Version: 6.00 Build 0)  -->
<svg version="1.1" id="Layer_1" xmlns="http://www.w3.org/2000/svg" xmlns:xlink="http://www.w3.org/1999/xlink" x="0px" y="0px"
	 viewBox="0 0 24 24" style="enable-background:new 0 0 24 24;" xml:space="preserve">
<title>icon-help</title>
<g id="help-circle">
	<circle cx="12" cy="20.5" r="1.5"/>
	<path d="M16,21.1c-0.4,0-0.7-0.2-0.9-0.6c-0.2-0.5,0-1.1,0.5-1.3c1.6-0.8,2.8-2.1,3.6-3.6c0.9-1.9,1.1-4.1,0.4-6.1
		c-0.7-2-2.1-3.7-4-4.6c-4-2-8.8-0.3-10.7,3.6c-2,4-0.3,8.8,3.6,10.7c0.5,0.2,0.7,0.8,0.5,1.3C8.7,21,8.1,21.2,7.6,21
		c-2.4-1.2-4.2-3.2-5-5.8S1.9,10,3,7.6c2.5-4.9,8.5-7,13.4-4.5c2.4,1.2,4.2,3.2,5,5.8c0.9,2.5,0.7,5.2-0.5,7.6
		c-1,1.9-2.6,3.5-4.5,4.5C16.3,21,16.2,21.1,16,21.1z"/>
	<path d="M12,17c-0.6,0-1-0.4-1-1v-1.6c0-0.7,0.6-1.2,1.3-1.7c1.1-0.7,2-1.4,2-2.4v-0.1c0-1.2-1-2.2-2.2-2.2c0,0,0,0,0,0
		c-1.3,0-2.3,1-2.3,2.3c0,0.6-0.4,1-1,1s-1-0.4-1-1C7.7,7.9,9.6,6,12,6c1.1,0,2.2,0.4,3,1.2s1.3,1.8,1.3,2.9v0.2
		c0,2.1-1.8,3.3-2.8,4.1c-0.1,0.1-0.3,0.2-0.4,0.3V16C13,16.6,12.6,17,12,17z"/>
</g>
</svg>
