<?xml version="1.0" encoding="utf-8"?>
<!-- Generator: Adobe Illustrator 21.0.0, SVG Export Plug-In . SVG Version: 6.00 Build 0)  -->
<svg version="1.1" id="Layer_1" xmlns="http://www.w3.org/2000/svg" xmlns:xlink="http://www.w3.org/1999/xlink" x="0px" y="0px"
	 viewBox="0 0 20 20" enable-background="new 0 0 20 20" xml:space="preserve">
<title id="simpleicons-linkedin-icon">LinkedIn icon</title>
<path fill="currentColor" d="M16.3,16.3h-2.7v-4.2c0-1,0-2.3-1.4-2.3c-1.4,0-1.6,1.1-1.6,2.2v4.3H8V7.8h2.6v1.2h0c0.4-0.7,1.2-1.4,2.5-1.4
	c2.7,0,3.2,1.8,3.2,4.1L16.3,16.3L16.3,16.3z M5,6.6C4.1,6.6,3.5,5.9,3.5,5c0-0.9,0.7-1.5,1.5-1.5c0.9,0,1.5,0.7,1.5,1.5
	C6.6,5.9,5.9,6.6,5,6.6z M6.3,16.3H3.7V7.8h2.7V16.3z M17.7,1H2.3C1.6,1,1,1.6,1,2.3v15.4C1,18.4,1.6,19,2.3,19h15.3
	c0.7,0,1.3-0.6,1.3-1.3V2.3C19,1.6,18.4,1,17.7,1L17.7,1z"/>
</svg>
