<?xml version="1.0" encoding="utf-8"?>
<!-- Generator: Adobe Illustrator 21.1.0, SVG Export Plug-In . SVG Version: 6.00 Build 0)  -->
<svg version="1.1" id="Layer_1" xmlns="http://www.w3.org/2000/svg" xmlns:xlink="http://www.w3.org/1999/xlink" x="0px" y="0px"
	 viewBox="0 0 24 24" style="enable-background:new 0 0 24 24;" xml:space="preserve">
<title>icon-warning-circle</title>
<g>
	<path d="M22,11.4c-0.1-2.7-1.3-5.1-3.3-6.9c-0.4-0.4-1-0.3-1.4,0.1c-0.4,0.4-0.3,1,0.1,1.4c1.6,1.4,2.5,3.4,2.7,5.5
		c0.1,2.1-0.6,4.2-2,5.8s-3.4,2.5-5.5,2.7c-2.1,0.1-4.2-0.6-5.8-2c-1.6-1.4-2.5-3.4-2.7-5.5c-0.1-2.1,0.6-4.2,2-5.8
		c1.3-1.4,3.1-2.4,5-2.6V11c0,0.6,0.4,1,1,1c0.6,0,1-0.4,1-1V2h-1C9.2,2,6.4,3.2,4.5,5.3c-1.8,2-2.7,4.6-2.5,7.2
		c0.1,2.7,1.3,5.1,3.3,6.9C7.2,21.2,9.6,22,12,22c2.7,0,5.5-1.1,7.5-3.3C21.2,16.7,22.1,14.1,22,11.4z"/>
	<circle cx="12" cy="15.5" r="1.5"/>
</g>
</svg>
