<?xml version="1.0" encoding="utf-8"?>
<!-- Generator: Adobe Illustrator 21.1.0, SVG Export Plug-In . SVG Version: 6.00 Build 0)  -->
<svg version="1.1" id="Layer_1" xmlns="http://www.w3.org/2000/svg" xmlns:xlink="http://www.w3.org/1999/xlink" x="0px" y="0px"
	 viewBox="0 0 24 24" style="enable-background:new 0 0 24 24;" xml:space="preserve">
<title>icon-lock</title>
<g>
	<path d="M16,10V6c0-2.2-1.8-4-4-4C9.8,2,8,3.8,8,6v4H5v12h14V10H16z M10,6c0-1.1,0.9-2,2-2c1.1,0,2,0.9,2,2v4h-4V6z M17,20H7v-8h10
		V20z"/>
	<path d="M12,18c0.6,0,1-0.4,1-1v-2c0-0.6-0.4-1-1-1s-1,0.4-1,1v2C11,17.6,11.4,18,12,18z"/>
</g>
</svg>
