<?xml version="1.0" encoding="UTF-8"?>
<svg width="24px" height="14px" viewBox="0 0 24 14" version="1.1" xmlns="http://www.w3.org/2000/svg" xmlns:xlink="http://www.w3.org/1999/xlink">
    <!-- Generator: Sketch 52.2 (67145) - http://www.bohemiancoding.com/sketch -->
    <title>next-annotation-right-facing</title>
    <desc>Created with Sketch.</desc>
    <defs>
        <path d="M4,5 L0.859,1.58 C0.591,1.31 0.591,0.873 0.859,0.602 C1.127,0.332 1.56,0.332 1.828,0.602 L5.658,4.51 C5.926,4.781 5.926,5.219 5.658,5.489 L1.828,9.397 C1.561,9.669 1.127,9.667 0.859,9.397 C0.591,9.128 0.591,8.69 0.859,8.419 L4,5 Z" id="path-1"></path>
    </defs>
    <g id="next-annotation-right-facing" stroke="none" stroke-width="1" fill="none" fill-rule="evenodd">
        <g id="chevron-small-right" transform="translate(18.000000, 0.000000)">
            <mask id="mask-2" fill="white">
                <use xlink:href="#path-1"></use>
            </mask>
            <use id="Mask" fill="#000000" fill-rule="nonzero" xlink:href="#path-1"></use>
            <g id="Tints/black" mask="url(#mask-2)" fill="#000000">
                <g transform="translate(-2.000000, 0.000000)" id="Rectangle">
                    <rect x="0" y="0" width="10" height="10"></rect>
                </g>
            </g>
        </g>
        <g id="icon-annotation" fill="#000000">
            <polygon id="Path" points="13.986 10.906 8.386 8.4 10.689 14 11.319 11.389"></polygon>
            <rect id="Rectangle" x="0" y="8.4" width="1.4" height="1.4"></rect>
            <rect id="Rectangle" x="2.8" y="8.4" width="1.4" height="1.4"></rect>
            <rect id="Rectangle" x="5.6" y="8.4" width="1.4" height="1.4"></rect>
            <rect id="Rectangle" x="0" y="5.6" width="1.4" height="1.4"></rect>
            <rect id="Rectangle" x="0" y="2.8" width="1.4" height="1.4"></rect>
            <rect id="Rectangle" x="8.4" y="5.6" width="1.4" height="1.4"></rect>
            <rect id="Rectangle" x="8.4" y="2.8" width="1.4" height="1.4"></rect>
            <rect id="Rectangle" x="0" y="0" width="1.4" height="1.4"></rect>
            <rect id="Rectangle" x="2.8" y="0" width="1.4" height="1.4"></rect>
            <rect id="Rectangle" x="5.6" y="0" width="1.4" height="1.4"></rect>
            <rect id="Rectangle" x="8.4" y="0" width="1.4" height="1.4"></rect>
        </g>
    </g>
</svg>