<svg id="Layer_1" data-name="Layer 1" xmlns="http://www.w3.org/2000/svg" viewBox="0 0 720 720"><defs><style>.cls-1{fill:#dcc7dd;}.cls-2{fill:#e2dff4;}.cls-3{fill:#dad0f4;}.cls-4{fill:none;}.cls-5{fill:#2760ff;}.cls-6{fill:#bf97df;}.cls-7{fill:#211bff;}.cls-8{fill:#071640;}</style></defs><title>Artboard 3</title><path class="cls-1" d="M586.86,449.4a14.81,14.81,0,0,0-3.09,2.44.73.73,0,0,0-.2-.28l-35.46-30.5,66.46-33.51c-.23-.44-.45-.89-.64-1.36l-66.24,33.4V359c-.51-.23-1-.47-1.5-.74V419.4L457,342.65a208,208,0,0,0,43.5-27.55q24.37-19.9,45.74-48.5V324.4c.49-.27,1-.51,1.5-.74V264.57q23.23-31.56,42.54-73.05l.26.08a9.69,9.69,0,0,0,7.39-1,9.76,9.76,0,1,0-9.06.43q-18.67,40.15-41.13,71V227.63a.75.75,0,0,0-.75-.75H383.63l31.54-75a11.29,11.29,0,1,0-1.34-.88l-88.68,75.84h-2.79l-70.42-60.57a11.15,11.15,0,1,0-14.51.88l1.34.88a11.07,11.07,0,0,0,12-.79l69.28,59.59H227.58a.75.75,0,0,0-.75.75V311l-.57.48c-39.75-24.64-77.5-57.73-105.78-92.71-.4.3-.81.59-1.24.86,28.3,35,66.05,68.15,105.82,92.87L107.24,413.23a9.58,9.58,0,1,0,.94,1.17L226.41,313.3l.42.26v137a.75.75,0,0,0,.75.75h60L234.42,577.54a9.8,9.8,0,1,0,1.35,1L427.46,481.9l-.52-1.42-190.46,96,52.68-125.17h127l-.55-1.5H289.79l39.61-94.13a229.07,229.07,0,0,0,46.06,4.85,199.72,199.72,0,0,0,21.47-1.14,188.92,188.92,0,0,0,58.53-16.09l90,77.39-57.75,29.12h-9.63l4.06,1.5h2.59l-1.1.55,1.92.71,2.51-1.26h58.9a.75.75,0,0,0,.75-.75V422.67l34.9,30a.73.73,0,0,0,.29.15,14.84,14.84,0,1,0,4-3.44Zm-1-263.06a8.25,8.25,0,1,1,5,3.8A8.2,8.2,0,0,1,585.84,186.34ZM410.93,142.18a9.64,9.64,0,1,1,9.64,9.64A9.65,9.65,0,0,1,410.93,142.18ZM234.52,158.34a9.64,9.64,0,1,1,9.64,9.64A9.65,9.65,0,0,1,234.52,158.34ZM108.33,419.83a8.27,8.27,0,1,1-2-5.34.68.68,0,0,0,.43.55A8.2,8.2,0,0,1,108.33,419.83Zm129.18,166a8.25,8.25,0,1,1-8.25-8.25A8.26,8.26,0,0,1,237.51,585.8ZM412.66,154,382,226.88H327.46Zm-87,74.36h55.66l-15.22,36.16L324.9,229.06Zm-97.38,0H321.8l.8.68-94.27,80.62Zm59.83,221.47H228.33V314.47q2.8,1.7,5.61,3.36c31.53,18.46,63.21,31.08,94,37.59ZM328.5,354c-30.68-6.46-62.31-19-93.8-37.47-2.13-1.25-4.25-2.53-6.37-3.82v-1.06L323.75,230,365.54,266Zm68.27,3.93C375.37,360.25,353,359,330,354.31L366.73,267l87.48,75.24A187.44,187.44,0,0,1,396.77,357.94Zm-29.43-92.37L383,228.38H546.2v35.7q-21.73,29.44-46.69,49.86a206.27,206.27,0,0,1-43.8,27.64ZM546.2,449.85H491L546.2,422Zm55,23.91a13.38,13.38,0,1,1,4.75-18.32A13.29,13.29,0,0,1,601.19,473.76Z"/><circle class="cls-2" cx="155.27" cy="306.61" r="19.34"/><circle class="cls-3" cx="155.27" cy="522.46" r="24.21"/><circle class="cls-3" cx="513.48" cy="258.97" r="9.02"/><path class="cls-4" d="M117.07,205.58a8.25,8.25,0,1,0-3.8,5A8.2,8.2,0,0,0,117.07,205.58Z"/><circle class="cls-4" cx="229.26" cy="585.8" r="8.25"/><path class="cls-4" d="M106.51,414.85a.73.73,0,0,1-.16-.36,8.34,8.34,0,1,0,.43.55A.73.73,0,0,1,106.51,414.85Z"/><polygon class="cls-4" points="412.66 154.01 327.46 226.88 382 226.88 412.66 154.01"/><polygon class="cls-4" points="381.37 228.38 325.71 228.38 324.9 229.06 366.15 264.54 381.37 228.38"/><path class="cls-4" d="M418.88,428l59.18,21.87h9.63l57.75-29.12-90-77.39a188.93,188.93,0,0,1-58.53,16.09,199.72,199.72,0,0,1-21.47,1.14,229.06,229.06,0,0,1-46.06-4.85l-39.61,94.13H415.61l-5-13.58A6.45,6.45,0,0,1,418.88,428Z"/><polygon class="cls-4" points="321.8 228.38 228.33 228.38 228.33 309.68 322.6 229.06 321.8 228.38"/><polygon class="cls-4" points="484.71 451.35 482.12 451.35 483.62 451.9 484.71 451.35"/><path class="cls-4" d="M430.22,142.18a9.64,9.64,0,1,0-9.64,9.64A9.65,9.65,0,0,0,430.22,142.18Z"/><polygon class="cls-4" points="289.15 451.35 236.48 576.52 426.94 480.48 416.17 451.35 289.15 451.35"/><path class="cls-4" d="M597.13,189.27a8.25,8.25,0,1,0-6.25.88A8.19,8.19,0,0,0,597.13,189.27Z"/><path class="cls-4" d="M500.46,315.1A208,208,0,0,1,457,342.65L546.2,419.4V266.6Q524.87,295.13,500.46,315.1Z"/><path class="cls-4" d="M228.33,314.47V449.85h59.83l39.74-94.43c-30.75-6.51-62.43-19.13-94-37.59Q231.13,316.18,228.33,314.47Z"/><circle class="cls-4" cx="594.41" cy="462.22" r="4.07" transform="translate(-152.29 365.22) rotate(-30.47)"/><path class="cls-4" d="M367.34,265.57l88.36,76a206.28,206.28,0,0,0,43.8-27.64q24.91-20.35,46.69-49.86v-35.7H383Z"/><path class="cls-4" d="M582.87,469a13.38,13.38,0,1,0,4.75-18.32A13.29,13.29,0,0,0,582.87,469Zm8.7-11.59a5.57,5.57,0,1,1-2,7.63A5.58,5.58,0,0,1,591.58,457.42Z"/><circle class="cls-4" cx="631.53" cy="378.57" r="6.27"/><path class="cls-4" d="M323.75,230l-95.42,81.61v1.06c2.12,1.3,4.24,2.58,6.37,3.82,31.49,18.44,63.12,31,93.8,37.47l37-88Z"/><path class="cls-4" d="M330,354.31c23,4.69,45.37,5.94,66.77,3.63a187.44,187.44,0,0,0,57.44-15.67L366.73,267Z"/><polygon class="cls-4" points="546.2 449.85 546.2 422.03 491.02 449.85 546.2 449.85"/><polygon class="cls-5" points="482.12 451.35 416.17 451.35 426.94 480.48 483.62 451.9 482.12 451.35"/><path class="cls-5" d="M452.72,550.27a6.45,6.45,0,0,0,11.74.8l11.64-21.85a6.45,6.45,0,0,1,10.25-1.53l39.38,39.38a6.45,6.45,0,0,0,9.12,0l14.81-14.81a6.45,6.45,0,0,0,0-9.12L510.3,503.75a6.45,6.45,0,0,1,1.53-10.25l21.85-11.64a6.45,6.45,0,0,0-.8-11.74l-47.34-17.5L427.46,481.9Z"/><path class="cls-5" d="M418.88,428a6.45,6.45,0,0,0-8.29,8.29l5,13.58h62.45Z"/><polygon class="cls-4" points="381.37 228.38 325.71 228.38 324.9 229.06 366.15 264.54 381.37 228.38"/><circle class="cls-4" cx="229.26" cy="585.8" r="8.25"/><polygon class="cls-4" points="412.66 154.01 327.46 226.88 382 226.88 412.66 154.01"/><path class="cls-4" d="M228.33,314.47V449.85h59.83l39.74-94.43c-30.75-6.51-62.43-19.13-94-37.59Q231.13,316.18,228.33,314.47Z"/><polygon class="cls-4" points="321.8 228.38 228.33 228.38 228.33 309.68 322.6 229.06 321.8 228.38"/><path class="cls-4" d="M117.07,205.58a8.25,8.25,0,1,0-3.8,5A8.2,8.2,0,0,0,117.07,205.58Z"/><path class="cls-4" d="M106.51,414.85a.73.73,0,0,1-.16-.36,8.34,8.34,0,1,0,.43.55A.73.73,0,0,1,106.51,414.85Z"/><path class="cls-4" d="M430.22,142.18a9.64,9.64,0,1,0-9.64,9.64A9.65,9.65,0,0,0,430.22,142.18Z"/><path class="cls-4" d="M597.13,189.27a8.25,8.25,0,1,0-6.25.88A8.19,8.19,0,0,0,597.13,189.27Z"/><path class="cls-4" d="M323.75,230l-95.42,81.61v1.06c2.12,1.3,4.24,2.58,6.37,3.82,31.49,18.44,63.12,31,93.8,37.47l37-88Z"/><path class="cls-4" d="M367.34,265.57l88.36,76a206.28,206.28,0,0,0,43.8-27.64q24.91-20.35,46.69-49.86v-35.7H383Z"/><path class="cls-4" d="M582.87,469a13.38,13.38,0,1,0,4.75-18.32A13.29,13.29,0,0,0,582.87,469Z"/><path class="cls-4" d="M330,354.31c23,4.69,45.37,5.94,66.77,3.63a187.44,187.44,0,0,0,57.44-15.67L366.73,267Z"/><polygon class="cls-4" points="546.2 449.85 546.2 422.03 491.02 449.85 546.2 449.85"/><path class="cls-4" d="M500.46,315.1A208,208,0,0,1,457,342.65L546.2,419.4V266.6Q524.87,295.13,500.46,315.1Z"/><circle class="cls-3" cx="631.53" cy="378.57" r="6.27"/><path class="cls-3" d="M631.53,359.83a19,19,0,0,0-17.59,26.36l9.95-5a.74.74,0,0,1,.3-.08,7.76,7.76,0,1,1,.56,1.27.74.74,0,0,1-.19.15l-10,5a19,19,0,1,0,16.95-27.71Z"/><path class="cls-4" d="M228.33,314.47V449.85h59.83l39.74-94.43c-30.75-6.51-62.43-19.13-94-37.59Q231.13,316.18,228.33,314.47Z"/><polygon class="cls-4" points="412.66 154.01 327.46 226.88 382 226.88 412.66 154.01"/><polygon class="cls-4" points="321.8 228.38 228.33 228.38 228.33 309.68 322.6 229.06 321.8 228.38"/><polygon class="cls-4" points="381.37 228.38 325.71 228.38 324.9 229.06 366.15 264.54 381.37 228.38"/><circle class="cls-4" cx="229.26" cy="585.8" r="8.25"/><path class="cls-4" d="M106.51,414.85a.73.73,0,0,1-.16-.36,8.34,8.34,0,1,0,.43.55A.73.73,0,0,1,106.51,414.85Z"/><path class="cls-4" d="M597.13,189.27a8.25,8.25,0,1,0-6.25.88A8.19,8.19,0,0,0,597.13,189.27Z"/><path class="cls-4" d="M430.22,142.18a9.64,9.64,0,1,0-9.64,9.64A9.65,9.65,0,0,0,430.22,142.18Z"/><path class="cls-4" d="M587.62,450.69a13.38,13.38,0,1,0,18.31,4.75A13.39,13.39,0,0,0,587.62,450.69Z"/><path class="cls-4" d="M367.34,265.57l88.36,76a206.28,206.28,0,0,0,43.8-27.64q24.91-20.35,46.69-49.86v-35.7H383Z"/><path class="cls-4" d="M323.75,230l-95.42,81.61v1.06c2.12,1.3,4.24,2.58,6.37,3.82,31.49,18.44,63.12,31,93.8,37.47l37-88Z"/><path class="cls-4" d="M500.46,315.1A208,208,0,0,1,457,342.65L546.2,419.4V266.6Q524.87,295.13,500.46,315.1Z"/><path class="cls-4" d="M330,354.31c23,4.69,45.37,5.94,66.77,3.63a187.44,187.44,0,0,0,57.44-15.67L366.73,267Z"/><polygon class="cls-4" points="546.2 449.85 546.2 422.03 491.02 449.85 546.2 449.85"/><path class="cls-3" d="M117.07,205.58a8.25,8.25,0,1,0-3.8,5A8.2,8.2,0,0,0,117.07,205.58Z"/><path class="cls-3" d="M109.1,213.26a9.78,9.78,0,0,1-2.46-.32,9.76,9.76,0,1,1,8.1-1.5q2.8,3.66,5.74,7.3a19,19,0,1,0-1.24.86q-3-3.68-5.81-7.39A9.66,9.66,0,0,1,109.1,213.26Z"/><polygon class="cls-4" points="321.8 228.38 228.33 228.38 228.33 309.68 322.6 229.06 321.8 228.38"/><polygon class="cls-4" points="412.66 154.01 327.46 226.88 382 226.88 412.66 154.01"/><polygon class="cls-4" points="381.37 228.38 325.71 228.38 324.9 229.06 366.15 264.54 381.37 228.38"/><path class="cls-4" d="M106.51,414.85a.73.73,0,0,1-.16-.36,8.34,8.34,0,1,0,.43.55A.73.73,0,0,1,106.51,414.85Z"/><circle class="cls-4" cx="229.26" cy="585.8" r="8.25"/><path class="cls-4" d="M536.18,341.34a19.33,19.33,0,0,1,10-16.94V266.6q-21.33,28.53-45.74,48.5A208,208,0,0,1,457,342.65L546.2,419.4V358.28A19.33,19.33,0,0,1,536.18,341.34Z"/><path class="cls-4" d="M430.22,142.18a9.64,9.64,0,1,0-9.64,9.64A9.65,9.65,0,0,0,430.22,142.18Z"/><path class="cls-4" d="M597.13,189.27a8.25,8.25,0,1,0-6.25.88A8.19,8.19,0,0,0,597.13,189.27Z"/><path class="cls-4" d="M587.62,450.69a13.38,13.38,0,1,0,18.31,4.75A13.39,13.39,0,0,0,587.62,450.69Z"/><polygon class="cls-4" points="546.2 449.85 546.2 422.03 491.02 449.85 546.2 449.85"/><path class="cls-4" d="M228.33,314.47V449.85h59.83l39.74-94.43c-30.75-6.51-62.43-19.13-94-37.59Q231.13,316.18,228.33,314.47Z"/><path class="cls-4" d="M546.2,264.07v-35.7H383l-15.65,37.19,88.36,76a206.28,206.28,0,0,0,43.8-27.64Q524.42,293.58,546.2,264.07Z"/><path class="cls-4" d="M323.75,230l-95.42,81.61v1.06c2.12,1.3,4.24,2.58,6.37,3.82,31.49,18.44,63.12,31,93.8,37.47l37-88Z"/><path class="cls-4" d="M330,354.31c23,4.69,45.37,5.94,66.77,3.63a187.44,187.44,0,0,0,57.44-15.67L366.73,267Z"/><path class="cls-2" d="M555.52,360.67a19.34,19.34,0,1,0-7.82-37V359A19.25,19.25,0,0,0,555.52,360.67Z"/><path class="cls-2" d="M536.18,341.34a19.33,19.33,0,0,0,10,16.94V324.4A19.33,19.33,0,0,0,536.18,341.34Z"/><path class="cls-6" d="M546.2,358.28c.49.27,1,.51,1.5.74V323.66c-.51.23-1,.47-1.5.74Z"/><path class="cls-6" d="M114.73,211.44a9.74,9.74,0,1,0-8.1,1.5,9.78,9.78,0,0,0,2.46.32,9.66,9.66,0,0,0,4.33-1.05q2.83,3.71,5.81,7.39c.42-.27.84-.56,1.24-.86Q117.54,215.11,114.73,211.44Zm-1.47-.83a8.25,8.25,0,1,1,3.8-5A8.2,8.2,0,0,1,113.27,210.62Z"/><path class="cls-6" d="M624.75,382.36a7.89,7.89,0,1,0-.56-1.27.74.74,0,0,0-.3.08l-9.95,5c.19.46.41.91.64,1.36l10-5A.74.74,0,0,0,624.75,382.36Zm6.78-10.07a6.27,6.27,0,1,1-6.27,6.27A6.28,6.28,0,0,1,631.53,372.3Z"/><polygon class="cls-7" points="426.94 480.48 427.46 481.9 485.54 452.61 483.62 451.9 426.94 480.48"/><polygon class="cls-7" points="478.06 449.85 415.61 449.85 416.17 451.35 482.12 451.35 478.06 449.85"/><path class="cls-1" d="M594.42,467.8a5.57,5.57,0,1,0-4.81-2.75A5.54,5.54,0,0,0,594.42,467.8Zm-2.08-9.09a4.07,4.07,0,1,1-1.45,5.58A4.08,4.08,0,0,1,592.34,458.71Z"/><path class="cls-8" d="M486.55,334.42a4.5,4.5,0,0,0-3.61-1.82H216.58a4.5,4.5,0,0,0-4.41,3.58L180.83,486.67a4.5,4.5,0,0,0,4.41,5.42H294.59a4.5,4.5,0,0,0,3.59-1.79c26.86-35.52,29.72-80.4,30-85.87.37-1.51.7-3,1-4.48.15-.71.31-1.41.46-2.11a22.57,22.57,0,0,1,10.07-14.31c3.54-2.17,8-3.26,13.32-3.26a53,53,0,0,1,10.81,1A20.45,20.45,0,0,1,380,399.73c.63,7.13,2.5,10.6,5.09,15.41l1.06,2a11.59,11.59,0,0,0-5,7.4L381,425c-2,10-4.84,19-16.79,19a4.5,4.5,0,0,0,0,9c20.3,0,23.89-17.67,25.61-26.17l.09-.45a2.63,2.63,0,0,1,1.37-1.81,7.85,7.85,0,0,0,3.27-10.68L393,410.87c-2.38-4.42-3.58-6.64-4-11.92a29.4,29.4,0,0,0-23.24-26.48,62,62,0,0,0-12.66-1.2c-7,0-13.06,1.54-18,4.59a30.39,30.39,0,0,0-5.83,4.67c-5.2-6-17.16-17.88-31.48-19-8.64-.68-16.6,2.56-23.68,9.63-18.83,18.83-35.65,26.42-35.81,26.49a4.5,4.5,0,0,0-2.31,5.92c.27.63,6.9,15.46,22.38,19.87a32,32,0,0,0,8.81,1.22c9,0,18.72-3.58,29-10.7l24.41-16.62-.16.72c-.35,1.61-.68,3.14-1.06,4.66a4.55,4.55,0,0,0-.13.94c0,.45-1.84,44.92-26.86,79.45H190.77L220.24,341.6H476.87L437,472.91A63.81,63.81,0,0,1,375.84,518H159.77V311.11H202.3a4.5,4.5,0,0,0,4.5-4.5v-31h68.46l21.68,30.92a4.5,4.5,0,0,0,3.68,1.92H401.95a4.5,4.5,0,0,0,4.49-4.82l-4.24-59.09c0-.09,0-.19,0-.28a24.24,24.24,0,0,0-11.3-17.57A26.11,26.11,0,0,0,377,223.13c-14.62,0-22.2,8-24.42,15.45a71.8,71.8,0,0,1-6.44,15.25l-.59,1-.06.11a7,7,0,0,0,2.9,9.46,1.56,1.56,0,0,1,.85,1.4c-.12,4.08.61,9.83,4.69,14,3.11,3.2,7.49,4.83,13,4.83a4.5,4.5,0,1,0,0-9c-3,0-5.2-.71-6.55-2.1-2-2.05-2.2-5.58-2.15-7.5a10.6,10.6,0,0,0-3.9-8.46,81.27,81.27,0,0,0,6.87-16.47c2.55-8.58,13.61-9,15.8-9a17.32,17.32,0,0,1,9.14,2.22,15.27,15.27,0,0,1,7.07,11l3.88,54.13H303l-21.68-30.92a4.5,4.5,0,0,0-3.68-1.92H202.3a4.5,4.5,0,0,0-4.5,4.5v31H155.27a4.5,4.5,0,0,0-4.5,4.5V522.46a4.5,4.5,0,0,0,4.5,4.5H375.84a72.78,72.78,0,0,0,69.81-51.41l41.6-137.15A4.5,4.5,0,0,0,486.55,334.42ZM291,406.52c-11.45,7.91-21.61,10.69-30.21,8.28-7.26-2-12-7.47-14.54-11.17a153.75,153.75,0,0,0,34.09-26.12c5.19-5.19,10.62-7.48,16.58-7,10.5.82,20.07,10,24.73,15.16Z"/><path class="cls-4" d="M405.22,134.18a9.64,9.64,0,1,0-9.64,9.64A9.65,9.65,0,0,0,405.22,134.18Z"/><path class="cls-4" d="M405.22,134.18a9.64,9.64,0,1,0-9.64,9.64A9.65,9.65,0,0,0,405.22,134.18Z"/><path class="cls-4" d="M405.22,134.18a9.64,9.64,0,1,0-9.64,9.64A9.65,9.65,0,0,0,405.22,134.18Z"/><path class="cls-4" d="M405.22,134.18a9.64,9.64,0,1,0-9.64,9.64A9.65,9.65,0,0,0,405.22,134.18Z"/></svg>